<?xml version="1.0" encoding="utf-8"?>
<!-- Generator: Adobe Illustrator 16.0.0, SVG Export Plug-In . SVG Version: 6.00 Build 0)  -->
<!DOCTYPE svg PUBLIC "-//W3C//DTD SVG 1.1//EN" "http://www.w3.org/Graphics/SVG/1.1/DTD/svg11.dtd">
<svg version="1.1" id="Layer_1" xmlns="http://www.w3.org/2000/svg" xmlns:xlink="http://www.w3.org/1999/xlink" x="0px" y="0px"
	 width="1000px" height="848.396px" viewBox="0 0 1000 848.396" enable-background="new 0 0 1000 848.396" xml:space="preserve">
<g>
	<path fill-rule="evenodd" clip-rule="evenodd" fill="#453530" d="M920.733,794.818c1.214-1.97,2.473-3.92,3.842-5.813
		c12.549-17.399,29.452-25.99,50.515-28.496l24.911-2.971l-5.702,24.434c-3.708,15.869-8.713,31.906-19.965,44.178
		c-15.63,17.058-38.352,21.366-60.46,22.147c-19.034,0.672-41.511-2.093-59.679-7.821l-1.292-0.406v0.857l-83.124,0.136v-18.174
		c-15.67,14.279-37.171,21.855-58.316,21.204c-31.345,0.472-72.054,4.508-99.575-14.133c-0.62,0.595-1.26,1.175-1.911,1.745
		c-12.06,10.585-27.179,16.023-43.216,15.525c-33.896-1.065-52.44-30.588-52.937-62.016l0.084-85.954
		c-3.081,0.621-6.342,1.369-9.256,2.203c-0.045,40.555-0.588,81.109,0.026,121.657l0.271,17.762l-17.758,0.097
		c-16.538,0.09-33.082,0.058-49.626,0.013l-17.533-0.046l-0.003-4.372c-53.969,16.572-112.796,9.43-161.188-20.009
		c-55.567-33.799-91.53-92.069-94.691-157.258c-1.686-34.8,4.072-70.065,17.917-102.095c13.095-30.312,33.291-57.295,59.979-76.924
		c4.961-3.649,10.118-7.021,15.45-10.096c38.8-22.359,81.897-26.545,125.238-17.075c38.766,8.46,73.311,29.516,106.977,49.621
		l0.72,0.427l0.675,0.497c6.692,4.923,14.072,9.482,21.86,13.215c-15.136-18.543-27.724-40.393-31.37-61.391
		c-3.378-19.466,0.387-39.582,10.55-55.804l0.006-8.374l-6.358-0.003c-20.658-0.01-41.32,0.714-61.965-0.326
		c-10.344-0.523-20.161-1.821-30.175-4.495c-3.229-0.73-6.342-1.751-9.356-3.042c-15.301,8.335-32.526,12.326-50.045,11.015
		c-19.906-1.492-38.475-9.521-52.998-22.728c-28.005,21.017-77.233,24.898-110.745,20.794c-48.325-5.926-91.45-30.854-123.179-67.42
		C16.014,289.016,0.62,245.865,0.016,198.235c-0.888-69.684,36.001-133.948,95.241-170.16
		C145.987-2.933,203.754-7.254,260.04,10.185l12.346,3.83l0.261,100.041l-25.477-12.637c-23.5-11.651-53.401-15.3-78.823-8.451
		c-48.612,13.095-82.211,59-79.831,109.321c2.707,57.273,47.25,99.682,103.967,102.818c19.063,1.052,37.525-3.275,54.951-10.813
		l6.071-2.629c3.291-18.381,12.665-35.468,26.316-48.483c4.98-4.75,10.583-8.945,16.603-12.446l-29.682-8.229l3.536-16.247
		c8.891-40.864,46.58-68.711,88.343-63.78c28.629,3.38,52.203,21.617,63.516,46.416l0.016-42.23l17.625,0.042
		c16.59,0.039,33.182-0.152,49.775,0.058l12.416,0.155c7.525-3.197,15.638-4.77,24.034-4.634l0.433,0.007l0.426,0.029
		c29.562,1.922,43.532,29.006,45.954,55.297c11.516-17.142,27.25-31.396,46.142-42.321c19.324-11.174,44.372-16.183,67.294-14.83
		c0.033-19.383,0.033-38.769-0.071-58.152l-0.051-8.635l84.867-66.383l-0.136,139.945l70.938-0.788v0.339l66.737,0.277
		l-0.31,216.721c-0.077,50.22-20.436,108.5-53.789,146.873l-0.051,84.635c3.101-0.878,6.31-1.452,9.63-1.704l0.522-0.04l0.53-0.012
		c30.68-0.427,51.651,24.885,55.391,53.659l0.136,1.04l0.013,1.04C921.229,697.795,920.726,746.307,920.733,794.818L920.733,794.818
		z M419.984,739.596l-0.068-143.048l84.576,0.128l0.16,18.705c3.101-0.445,6.207-0.82,9.339-1.091l0.014-17.659h150.503v48.894
		c8.357-25.1,32.176-45.961,57.966-51.142c15.186-3.048,32.333-1.744,47.291,2.843v-28.872
		c-28.049,12.298-58.258,20.611-88.625,23.395c-26.946,2.474-53.88,0.75-80.219-5.328c-29.917,10.108-61.242,13.195-92.36,6.679
		c-17.022-3.565-33.809-8.307-49.804-15.191c-11.522-4.968-22.353-11.077-33.068-17.561c-12.395-7.5-24.695-14.778-38.107-20.359
		c-29.381-12.232-58.081-8.725-84.869,7.298c-35.145,22.568-50.61,67.005-48.282,107.307c2.031,35.188,21.181,65.376,50.533,84.384
		c30.838,19.978,74.367,20.895,106.971,4.63L419.984,739.596L419.984,739.596z M664.507,700.114v70.885
		c11.173,1.466,23.684-0.428,34.813-1.687c2.278-0.426,8.544-1.504,9.578-2.493c0.794-4.845-14.139-20.021-17.556-23.923
		C678.742,729.372,669.5,715.355,664.507,700.114L664.507,700.114z M769.772,698.899l-14.371-13.771
		c-1.576-1.497-3.643-3.023-5.846-4.301c3.391,4.12,7.544,8.357,9.179,10.166l0.265,0.284l0.246,0.297
		c3.667,4.431,7.201,8.603,10.527,12.788V698.899L769.772,698.899z M573.257,341.529l0.006,28.907
		c9.869,3.184,18.698,8.664,25.771,16.511c4.18-3.668,8.713-7.011,13.499-9.901c-1.149-0.659-2.286-1.337-3.41-2.038
		C594.662,366.018,582.571,354.728,573.257,341.529L573.257,341.529z M698.5,392.815c2.247,3.268,4.224,6.721,5.916,10.292
		c9.591,20.193,10.237,43.506,4.347,64.846l-0.207,0.685c-5.968,18.64-18.007,38.358-32.017,54.964
		c26.566-5.496,52.892-15.998,75.154-29.497c21.806-13.938,48.39-33.482,59.867-57.315c6.181-12.859,9.049-29.273,10.405-44.662
		c-3.049,0.465-6.175,0.595-9.372,0.359c-7.008-0.514-13.731-2.167-19.944-4.906l0.646,5.335l-18.686,1.095
		c-15.694,0.92-35.032-2.8-49.777-10.163C716.597,388.226,707.67,391.142,698.5,392.815L698.5,392.815z M592.272,514.812
		c20.907-14.83,47.246-35.995,54.369-59.815c1.072-3.842,2.216-12.375-0.108-15.895c-1.028-1.563-2.598-2.26-4.419-2.479
		l-0.252-0.026l-0.252-0.052c-14.145-2.461-30.039,13.202-37.88,23.265l-8.487,10.89l-7.653-11.491
		c-7.551-11.328-11.562-16.812-23.543-22.953c-3.52-1.183-10.65-1.461-13.299,1.22c-3.423,3.456-3.507,11.82-2.731,16.076
		C553.261,479.121,570.583,500.821,592.272,514.812L592.272,514.812z M336.097,310.614c2.013,2.477,7.15,2.334,8.946-0.326
		l0.274-0.41l0.3-0.394c2.158-2.842,0.385-7.331-2.9-8.374l-0.555-0.184c-2.422-0.862-5.703,0.123-6.966,2.455
		c-1.334,2.467-1.188,4.772,0.717,7.01L336.097,310.614L336.097,310.614z M686.46,311.544v-85.976
		c-16.716-2.451-33.051,4.602-42.944,19.021c-4.496,6.546-7.208,14.187-7.583,22.135C634.68,293.673,660.38,317.744,686.46,311.544
		L686.46,311.544z"/>
	<path fill-rule="evenodd" clip-rule="evenodd" fill="#CA9853" d="M563.258,247.822c6.233-35.758,27.708-64.833,60.687-83.902
		c20.249-11.713,48.332-16.215,72.249-12.369c0.044-23.097,0.07-46.193-0.053-69.29l-0.024-3.746L761.02,27.75l-0.278,291.116
		c1.524,0.743,4.947,1.024,6.602,1.095l-0.097-162.719l64.607-0.714l0.206,144.063c0.937-2.651,1.439-5.745,1.439-9.626
		l-0.226-134.246l65.292,0.271l-0.304,206.791c-0.063,47.727-19.777,105.782-53.776,143.1l-0.063,104.283
		c5.801-4.236,12.472-7.054,20.351-7.64l0.22-0.02h0.213c25.604-0.466,42.234,21.391,45.38,44.984l0.059,0.459l0.007,0.465
		c0.562,53.614,0,107.248,0.141,160.862c0.621,2.971,3.469,6.265,6.666,5.374l0.291-0.072c0.29-0.07,0.562-0.174,0.827-0.31
		c2.015-1.052,4.139-4.45,5.29-6.323c2.932-4.767,5.488-9.545,8.783-14.111c10.877-15.082,25.272-22.251,43.622-24.435l10.807-1.292
		l-2.481,10.6c-3.268,13.995-7.68,28.891-17.6,39.715c-13.621,14.861-34.271,18.246-53.472,18.924
		c-17.716,0.62-39.515-2.06-56.333-7.369l-5.305-1.666l-0.031-5.562c-0.322-49.9-0.349-99.859-0.174-149.778
		c-3.585,4.624-6.362,9.907-8.57,15.384l-0.162,141.635l-63.213,0.104v-41.588c-2.699,8.177-6.871,15.745-12.588,21.966
		c-13.976,15.211-35.078,23.354-55.604,22.658c-30.904,0.457-76.529,5.38-100.757-17.795c-2.027,2.629-4.23,5.122-7.382,7.894
		c-10.225,8.971-22.709,13.479-36.337,13.046c-28.303-0.884-42.874-26.042-43.293-52.212l0.103-97.489l-3.513,0.484
		c-5.077,0.698-19.073,3.404-25.674,6.375c0.022,42.95-0.614,85.901,0.032,128.846l0.117,7.699l-7.705,0.045
		c-16.516,0.091-33.031,0.058-49.542,0.014l-7.608-0.014l-0.107-224.494l64.739,0.098l0.175,20.571
		c7.902-1.569,15.569-2.776,24.023-3.27l5.121-0.303l0.02-17.031h60.952v157.142c4.527-5.981,8.578-12.86,8.603-15.862
		l0.026-141.279h61.009v165.797c0.033,4.521,3.152,7.421,7.396,8.306c12.607,1.911,26.262-0.117,38.869-1.525
		c5.96-1.194,14.429-2.221,17.198-8.364c4.915-10.896-12.832-27.094-19.267-34.573c-23.057-24.711-34.166-50.533-25.654-84.699
		l0.053-0.194c6.343-22.864,28.108-42.537,51.29-47.188c14.642-2.938,31.569-1.278,45.656,3.662l5.108,1.79l-0.007,80.695
		l-12.904-12.355c-4.309-4.127-10.922-8.048-16.741-9.566c-2.26-0.581-8.655-1.988-10.146,0.893
		c-4.406,8.492,10.902,22.851,15.953,28.412l0.115,0.123l0.109,0.136c11.703,14.118,22.225,25.582,28.16,43.383l-0.012-188.634
		c-31.269,15.648-65.614,26.041-99.498,29.141c-26.888,2.467-53.626,0.607-79.83-5.761c-29.097,10.283-59.33,13.667-89.797,7.286
		c-16.375-3.437-32.52-7.971-47.908-14.598c-11.219-4.825-21.426-10.618-31.851-16.928c-13.076-7.912-25.238-15.127-39.431-21.036
		c-32.307-13.441-64.307-9.702-94.078,8.111c-38.236,24.556-55.381,72.325-52.846,116.265c2.215,38.372,23.058,71.447,55.064,92.173
		c33.805,21.889,81.08,23.019,116.829,5.181l11.042-5.51l-0.026,76.64l-5.183,1.757c-52.755,17.858-110.652,11.574-158.195-17.349
		c-52.749-32.08-86.918-87.354-89.922-149.236c-1.612-33.294,3.866-67.01,17.109-97.662c12.398-28.678,31.474-54.268,56.741-72.85
		c4.663-3.43,9.51-6.594,14.522-9.487c36.734-21.172,77.192-24.918,118.14-15.979c37.374,8.163,71.521,29.012,103.996,48.44
		l0.311,0.187l0.29,0.213c17.297,12.711,38.662,23.013,60.507,24.576c-24.919-21.236-49.355-53.956-54.306-82.472
		c-4.799-27.65,6.546-55.384,29.923-69.012l-19.215,5.077l0.129-165.838c-4.966,5.933-8.967,12.856-8.961,18.863l0.161,138.476
		l-7.644-0.007c-20.394-0.013-41.123,0.714-61.471-0.313c-9.927-0.503-18.688-1.641-28.296-4.221
		c-4.373-0.971-8.345-2.544-12.143-4.656c-14.629,9.107-31.548,13.67-48.896,12.369c-22.577-1.692-42.318-12.698-55.539-29.22
		l1.495,3.973l-4.341,3.458c-25.309,20.158-73.423,23.759-104.891,19.902c-45.879-5.622-86.76-29.368-116.868-64.061
		C25.118,284.311,10.55,243.453,9.976,198.109C9.129,131.907,44.21,70.952,100.45,36.575
		C148.664,7.101,203.432,3.067,257.091,19.698l5.358,1.66l0.197,76.618l-11.048-5.477c-25.667-12.73-58.061-16.634-85.84-9.149
		c-53.237,14.342-89.8,64.113-87.188,119.41c2.952,62.463,51.641,108.875,113.365,112.289c20.639,1.14,40.583-3.453,59.456-11.617
		l7.35-3.181l3.498,9.291c-1.033-22.389,8.245-43.7,24.456-59.156c11.545-11.006,27.014-18.772,42.993-20.765l-51.211-14.196
		l1.534-7.05c7.812-35.914,40.739-60.341,77.447-56.004c35.419,4.182,62.01,34.348,61.949,70l-0.165,97.456
		c2.745,6.504,7.379,7.011,12.792,5.044l0.077-168.225l7.644,0.02c16.557,0.039,33.118-0.152,49.671,0.055l7.495,0.097l0.022,4.215
		c8.291-5.774,18.037-8.965,28.907-8.788h0.187l0.182,0.013c26.92,1.753,37.016,30.54,37.027,53.717L563.258,247.822
		L563.258,247.822z M563.278,291.906l0.026,81.784l-12.717,3.358c19.848-0.165,37.338,7.935,47.239,25.128
		c10.224-11.574,24.362-21.166,39.327-24.805c-8.196-2.891-15.908-6.556-22.773-10.822
		C586.317,349.105,568.807,322.951,563.278,291.906L563.278,291.906z M676.92,384.612c7.938,5.72,14.235,13.773,18.505,22.768
		c8.558,18.029,8.99,38.891,3.732,57.925l-0.084,0.291c-7.692,24.014-27.817,52.924-50.171,71.809
		c37.829-2.402,77.098-16.069,108.158-34.902c23.516-15.037,51.05-35.589,63.471-61.398c8.577-17.826,11.451-41.817,12.297-63.241
		c-5.819,3.307-12.266,5.225-19.506,4.692c-13.782-1.011-25.26-7.13-33.308-16.376l2.119,17.416l-8.112,0.475
		c-15.095,0.885-35.536-3.203-49.319-11.665C710.848,381.199,694.03,384.848,676.92,384.612L676.92,384.612z M342.698,229.263
		c4.457,0.303,8.335,1.075,12.13,2.467l0.025-9.071c-0.281-3.359-2.913-5.978-6.381-5.838c-3.498,0.139-5.406,3.584-5.538,6.759
		L342.698,229.263L342.698,229.263z M568.026,427.102c-7.324-2.823-18.621-2.335-24.356,3.361
		c-5.787,5.932-6.924,16.777-5.405,25.084c6.199,30.265,27.533,55.842,54.402,71.148c23.846-16.521,54.957-40.226,63.573-69.031
		c2.047-7.376,2.687-17.852-1.389-24.039c-2.501-3.791-6.485-6.272-11.528-6.889c-17.847-3.106-36.015,12.28-47.446,26.948
		C586.484,439.593,581.389,433.845,568.026,427.102L568.026,427.102z M328.37,316.893c6.223,7.663,19.379,7.166,24.928-1.034
		l0.122-0.18l0.132-0.174c6.378-8.352,1.96-20.775-7.815-23.881l-0.243-0.084c-7.052-2.502-15.456,0.446-19.056,7.098
		c-3.291,6.084-2.687,12.831,1.818,18.124L328.37,316.893L328.37,316.893z M696.419,318.71V217.644
		c-22.979-7.092-47.194,1.027-61.113,21.311c-5.548,8.08-8.861,17.503-9.319,27.308C624.269,303.132,662.065,333.327,696.419,318.71
		L696.419,318.71z"/>
	<path fill-rule="evenodd" clip-rule="evenodd" fill="#70272A" d="M545.09,461.462c8.202,24.505,24.854,45.341,47.686,58.64
		c20.132-14.927,51.509-38.203,58.729-62.696c5.6-20.125-4.992-32.073-25.371-23.161c-12.136,6.188-20.86,14.675-30.885,27.87
		c-5.613-10.664-14.229-23.394-26.307-28.993c-14.262-6.44-24.24-0.955-26.171,11.058
		C541.718,450.689,543.063,455.391,545.09,461.462L545.09,461.462z"/>
	<path fill-rule="evenodd" clip-rule="evenodd" fill="#71282A" d="M545.905,461.785c8.072,24.104,24.452,44.604,46.909,57.689
		c19.804-14.687,50.669-37.584,57.774-61.668c5.502-19.809-4.915-31.558-24.957-22.786c-11.942,6.083-20.526,14.429-30.382,27.41
		c-5.522-10.488-14.003-23.013-25.881-28.522c-14.027-6.333-23.839-0.937-25.744,10.877
		C542.591,451.193,543.908,455.817,545.905,461.785L545.905,461.785z"/>
	<path fill-rule="evenodd" clip-rule="evenodd" fill="#73282B" d="M546.718,462.114c7.938,23.71,24.046,43.861,46.135,56.728
		c19.474-14.436,49.823-36.958,56.812-60.642c5.412-19.474-4.838-31.031-24.544-22.405c-11.741,5.981-20.183,14.189-29.878,26.953
		c-5.426-10.316-13.764-22.626-25.448-28.052c-13.795-6.224-23.444-0.917-25.317,10.696
		C543.462,451.696,544.761,456.243,546.718,462.114L546.718,462.114z"/>
	<path fill-rule="evenodd" clip-rule="evenodd" fill="#74282B" d="M547.538,462.443c7.804,23.304,23.64,43.126,45.354,55.765
		c19.143-14.189,48.983-36.324,55.855-59.613c5.322-19.15-4.755-30.515-24.13-22.031c-11.543,5.884-19.842,13.957-29.375,26.501
		c-5.335-10.142-13.538-22.251-25.021-27.572c-13.563-6.127-23.052-0.912-24.893,10.508
		C544.335,452.199,545.608,456.67,547.538,462.443L547.538,462.443z"/>
	<path fill-rule="evenodd" clip-rule="evenodd" fill="#76282B" d="M548.353,462.768c7.673,22.914,23.238,42.388,44.57,54.821
		c18.821-13.95,48.15-35.717,54.9-58.607c5.232-18.813-4.67-29.981-23.717-21.648c-11.342,5.786-19.499,13.718-28.864,26.054
		c-5.251-9.973-13.306-21.869-24.588-27.102c-13.338-6.022-22.657-0.892-24.474,10.334
		C545.207,452.704,546.459,457.096,548.353,462.768L548.353,462.768z"/>
	<path fill-rule="evenodd" clip-rule="evenodd" fill="#77282C" d="M549.172,463.097c7.531,22.508,22.825,41.652,43.79,53.858
		c18.492-13.705,47.311-35.083,53.944-57.572c5.141-18.499-4.593-29.466-23.303-21.275c-11.148,5.684-19.164,13.473-28.368,25.589
		c-5.153-9.791-13.065-21.481-24.155-26.622c-13.105-5.917-22.264-0.879-24.039,10.152
		C546.079,453.208,547.306,457.521,549.172,463.097L549.172,463.097z"/>
	<path fill-rule="evenodd" clip-rule="evenodd" fill="#78292C" d="M549.986,463.426c7.401,22.108,22.425,40.91,43.016,52.903
		c18.162-13.467,46.465-34.464,52.981-56.559c5.051-18.163-4.508-28.937-22.89-20.889c-10.94,5.581-18.815,13.228-27.857,25.139
		c-5.063-9.625-12.84-21.107-23.729-26.159c-12.873-5.807-21.869-0.859-23.613,9.973
		C546.951,453.711,548.159,457.949,549.986,463.426L549.986,463.426z"/>
	<path fill-rule="evenodd" clip-rule="evenodd" fill="#79292C" d="M550.8,463.748c7.272,21.715,22.018,40.174,42.239,51.954
		c17.834-13.227,45.625-33.843,52.026-55.532c4.96-17.839-4.431-28.418-22.478-20.52c-10.747,5.483-18.478,12.994-27.353,24.68
		c-4.974-9.443-12.607-20.72-23.304-25.681c-12.632-5.704-21.475-0.84-23.187,9.791C547.816,454.215,549.004,458.382,550.8,463.748
		L550.8,463.748z"/>
	<path fill-rule="evenodd" clip-rule="evenodd" fill="#7B292C" d="M551.621,464.084c7.131,21.308,21.61,39.425,41.458,50.986
		c17.504-12.977,44.785-33.218,51.069-54.512c4.864-17.505-4.353-27.89-22.063-20.139c-10.554,5.387-18.143,12.762-26.855,24.232
		c-4.876-9.274-12.375-20.346-22.87-25.208c-12.401-5.6-21.075-0.834-22.761,9.61C548.687,454.72,549.85,458.808,551.621,464.084
		L551.621,464.084z"/>
	<path fill-rule="evenodd" clip-rule="evenodd" fill="#7D292D" d="M552.434,464.407c6.995,20.913,21.204,38.688,40.683,50.029
		c17.175-12.73,43.94-32.591,50.108-53.479c4.773-17.181-4.269-27.372-21.65-19.765c-10.353,5.278-17.8,12.518-26.345,23.775
		c-4.793-9.1-12.143-19.963-22.451-24.737c-12.162-5.496-20.674-0.813-22.328,9.438C549.56,455.223,550.704,459.233,552.434,464.407
		L552.434,464.407z"/>
	<path fill-rule="evenodd" clip-rule="evenodd" fill="#7E2A2D" d="M553.249,464.736c6.865,20.514,20.803,37.945,39.907,49.081
		c16.845-12.491,43.1-31.972,49.146-52.472c4.684-16.844-4.179-26.843-21.229-19.376c-10.152,5.174-17.458,12.271-25.842,23.315
		c-4.702-8.926-11.91-19.576-22.019-24.259c-11.935-5.394-20.279-0.801-21.902,9.25
		C550.431,455.727,551.548,459.659,553.249,464.736L553.249,464.736z"/>
	<path fill-rule="evenodd" clip-rule="evenodd" fill="#7F2B2D" d="M554.069,465.065c6.729,20.107,20.396,37.202,39.126,48.118
		c16.516-12.246,42.26-31.351,48.189-51.444c4.592-16.516-4.102-26.319-20.816-19.002c-9.96,5.077-17.115,12.04-25.345,22.865
		c-4.605-8.752-11.671-19.196-21.585-23.788c-11.703-5.284-19.887-0.788-21.476,9.068
		C551.304,456.229,552.402,460.087,554.069,465.065L554.069,465.065z"/>
	<path fill-rule="evenodd" clip-rule="evenodd" fill="#812B2D" d="M554.881,465.39c6.602,19.711,19.99,36.472,38.347,47.161
		c16.191-12,41.426-30.718,47.232-50.41c4.502-16.192-4.018-25.804-20.402-18.635c-9.76,4.987-16.774,11.807-24.835,22.413
		c-4.516-8.577-11.444-18.809-21.158-23.317c-11.472-5.179-19.493-0.762-21.049,8.889
		C552.175,456.734,553.249,460.52,554.881,465.39L554.881,465.39z"/>
	<path fill-rule="evenodd" clip-rule="evenodd" fill="#832B2E" d="M555.702,465.719c6.459,19.312,19.578,35.729,37.571,46.205
		c15.856-11.761,40.58-30.098,46.271-49.391c4.41-15.861-3.94-25.278-19.99-18.251c-9.566,4.869-16.438,11.561-24.338,21.952
		c-4.417-8.401-11.212-18.426-20.726-22.845c-11.237-5.069-19.099-0.749-20.623,8.713
		C553.048,457.238,554.1,460.945,555.702,465.719L555.702,465.719z"/>
	<path fill-rule="evenodd" clip-rule="evenodd" fill="#842C2E" d="M556.516,466.048c6.33,18.911,19.176,34.993,36.789,45.25
		c15.534-11.517,39.74-29.478,45.315-48.376c4.32-15.526-3.856-24.75-19.578-17.865c-9.357,4.772-16.095,11.315-23.826,21.494
		c-4.333-8.228-10.979-18.045-20.299-22.365c-11.006-4.968-18.705-0.737-20.197,8.531
		C553.914,457.741,554.947,461.372,556.516,466.048L556.516,466.048z"/>
	<path fill-rule="evenodd" clip-rule="evenodd" fill="#842B2E" d="M557.33,466.377c6.194,18.511,18.77,34.251,36.015,44.288
		c15.204-11.271,38.9-28.852,44.359-47.344c4.224-15.21-3.778-24.232-19.164-17.496c-9.165,4.669-15.76,11.077-23.328,21.05
		c-4.238-8.062-10.749-17.672-19.868-21.902c-10.773-4.863-18.304-0.717-19.771,8.352
		C554.785,458.246,555.793,461.798,557.33,466.377L557.33,466.377z"/>
	<path fill-rule="evenodd" clip-rule="evenodd" fill="#872D2E" d="M558.15,466.707c6.059,18.11,18.363,33.507,35.232,43.338
		c14.874-11.031,38.062-28.238,43.404-46.329c4.132-14.874-3.695-23.703-18.751-17.121c-8.965,4.579-15.417,10.85-22.824,20.597
		c-4.148-7.881-10.516-17.285-19.436-21.424c-10.541-4.754-17.917-0.711-19.344,8.164
		C555.658,458.75,556.645,462.224,558.15,466.707L558.15,466.707z"/>
	<path fill-rule="evenodd" clip-rule="evenodd" fill="#882D2F" d="M558.964,467.029c5.929,17.716,17.961,32.771,34.457,42.383
		c14.545-10.787,37.222-27.605,42.441-45.302c4.042-14.545-3.611-23.188-18.337-16.741c-8.765,4.47-15.075,10.604-22.314,20.139
		c-4.057-7.713-10.283-16.909-19.01-20.952c-10.308-4.651-17.516-0.685-18.918,7.989
		C556.529,459.253,557.499,462.651,558.964,467.029L558.964,467.029z"/>
	<path fill-rule="evenodd" clip-rule="evenodd" fill="#8A2C2F" d="M559.778,467.365c5.793,17.31,17.556,32.021,33.683,41.414
		c14.216-10.541,36.375-26.979,41.483-44.275c3.947-14.216-3.532-22.657-17.922-16.359c-8.57,4.365-14.738,10.358-21.818,19.686
		c-3.965-7.544-10.05-16.528-18.574-20.487c-10.076-4.548-17.123-0.671-18.485,7.815C557.4,459.756,558.343,463.077,559.778,467.365
		L559.778,467.365z"/>
	<path fill-rule="evenodd" clip-rule="evenodd" fill="#8B2D2F" d="M560.592,467.688c5.663,16.91,17.154,31.287,32.906,40.465
		c13.887-10.302,35.536-26.358,40.523-43.254c3.861-13.894-3.449-22.135-17.505-15.986c-8.377,4.27-14.396,10.121-21.313,19.228
		c-3.875-7.362-9.817-16.139-18.148-20.009c-9.844-4.437-16.729-0.652-18.059,7.634
		C558.273,460.261,559.197,463.503,560.592,467.688L560.592,467.688z"/>
	<path fill-rule="evenodd" clip-rule="evenodd" fill="#8D2D2F" d="M561.413,468.019c5.521,16.514,16.74,30.549,32.118,39.508
		c13.564-10.056,34.703-25.732,39.574-42.241c3.765-13.557-3.372-21.604-17.097-15.597c-8.178,4.165-14.056,9.888-20.805,18.775
		c-3.785-7.189-9.591-15.76-17.723-19.539c-9.61-4.333-16.327-0.639-17.633,7.447C559.138,460.765,560.043,463.929,561.413,468.019
		L561.413,468.019z"/>
	<path fill-rule="evenodd" clip-rule="evenodd" fill="#8F2D30" d="M562.225,468.348c5.394,16.107,16.342,29.806,31.345,38.545
		c13.234-9.804,33.863-25.111,38.611-41.206c3.682-13.24-3.289-21.088-16.678-15.23c-7.982,4.069-13.718,9.65-20.307,18.317
		c-3.687-7.015-9.352-15.379-17.29-19.054c-9.378-4.237-15.933-0.633-17.205,7.26C560.01,461.268,560.888,464.356,562.225,468.348
		L562.225,468.348z"/>
	<path fill-rule="evenodd" clip-rule="evenodd" fill="#902E30" d="M563.04,468.67c5.264,15.715,15.934,29.071,30.568,37.597
		c12.912-9.565,33.024-24.485,37.649-40.192c3.59-12.905-3.204-20.565-16.264-14.843c-7.775,3.965-13.37,9.404-19.797,17.864
		c-3.597-6.839-9.126-14.997-16.863-18.588c-9.145-4.128-15.54-0.606-16.78,7.086C560.882,461.772,561.742,464.782,563.04,468.67
		L563.04,468.67z"/>
	<path fill-rule="evenodd" clip-rule="evenodd" fill="#912E30" d="M563.853,468.999c5.128,15.313,15.534,28.334,29.795,36.641
		c12.574-9.325,32.177-23.872,36.692-39.166c3.493-12.581-3.127-20.041-15.851-14.473c-7.583,3.868-13.033,9.163-19.293,17.406
		c-3.507-6.659-8.893-14.61-16.437-18.112c-8.913-4.016-15.146-0.593-16.354,6.912C561.753,462.276,562.587,465.208,563.853,468.999
		L563.853,468.999z"/>
	<path fill-rule="evenodd" clip-rule="evenodd" fill="#932E31" d="M564.673,469.329c4.992,14.906,15.127,27.591,29.014,35.679
		c12.252-9.082,31.337-23.24,35.736-38.146c3.403-12.246-3.043-19.513-15.437-14.095c-7.383,3.773-12.699,8.934-18.795,16.962
		c-3.411-6.491-8.655-14.235-16.006-17.646c-8.674-3.914-14.745-0.574-15.921,6.729C562.626,462.779,563.44,465.634,564.673,469.329
		L564.673,469.329z"/>
	<path fill-rule="evenodd" clip-rule="evenodd" fill="#952E31" d="M565.488,469.651c4.862,14.521,14.719,26.856,28.238,34.729
		c11.915-8.835,30.497-22.624,34.773-37.118c3.313-11.923-2.958-18.995-15.023-13.718c-7.188,3.668-12.349,8.687-18.291,16.502
		c-3.321-6.317-8.423-13.854-15.573-17.167c-8.441-3.817-14.351-0.563-15.493,6.543C563.491,463.283,564.286,466.06,565.488,469.651
		L565.488,469.651z"/>
	<path fill-rule="evenodd" clip-rule="evenodd" fill="#973031" d="M566.308,469.987c4.72,14.106,14.313,26.107,27.456,33.768
		c11.587-8.597,29.658-21.999,33.812-36.105c3.229-11.587-2.874-18.472-14.603-13.331c-6.988,3.565-12.015,8.449-17.788,16.044
		c-3.229-6.142-8.19-13.473-15.146-16.689c-8.208-3.714-13.957-0.555-15.068,6.361C564.364,463.788,565.138,466.493,566.308,469.987
		L566.308,469.987z"/>
	<path fill-rule="evenodd" clip-rule="evenodd" fill="#982F31" d="M567.122,470.31c4.586,13.72,13.905,25.371,26.675,32.812
		c11.265-8.345,28.818-21.372,32.862-35.071c3.133-11.265-2.798-17.949-14.196-12.963c-6.789,3.462-11.671,8.21-17.277,15.592
		c-3.14-5.969-7.964-13.093-14.72-16.218c-7.977-3.604-13.564-0.537-14.643,6.181C565.235,464.291,565.984,466.92,567.122,470.31
		L567.122,470.31z"/>
	<path fill-rule="evenodd" clip-rule="evenodd" fill="#993031" d="M567.936,470.641c4.456,13.311,13.505,24.627,25.898,31.848
		c10.936-8.1,27.979-20.745,31.9-34.051c3.041-10.929-2.714-17.419-13.777-12.581c-6.594,3.364-11.328,7.97-16.772,15.138
		c-3.049-5.793-7.731-12.704-14.294-15.745c-7.744-3.502-13.163-0.517-14.215,6.007
		C566.108,464.795,566.837,467.346,567.936,470.641L567.936,470.641z"/>
	<path fill-rule="evenodd" clip-rule="evenodd" fill="#9B2F32" d="M568.756,470.97c4.32,12.91,13.091,23.884,25.124,30.892
		c10.604-7.859,27.133-20.125,30.938-33.023c2.951-10.605-2.629-16.902-13.363-12.207c-6.394,3.261-10.994,7.73-16.276,14.688
		c-2.952-5.626-7.492-12.33-13.854-15.282c-7.519-3.392-12.77-0.504-13.79,5.826C566.979,465.298,567.683,467.772,568.756,470.97
		L568.756,470.97z"/>
	<path fill-rule="evenodd" clip-rule="evenodd" fill="#9D3132" d="M569.569,471.292c4.186,12.518,12.691,23.155,24.344,29.942
		c10.275-7.621,26.3-19.505,29.987-32.009c2.855-10.275-2.551-16.373-12.956-11.82c-6.193,3.159-10.65,7.493-15.766,14.223
		c-2.867-5.445-7.267-11.942-13.428-14.804c-7.286-3.28-12.382-0.484-13.364,5.646C567.851,465.803,568.529,468.198,569.569,471.292
		L569.569,471.292z"/>
	<path fill-rule="evenodd" clip-rule="evenodd" fill="#9E2F32" d="M570.389,471.628c4.05,12.11,12.278,22.405,23.562,28.974
		c9.954-7.376,25.454-18.872,29.026-30.977c2.765-9.951-2.467-15.855-12.544-11.444c-5.993,3.056-10.307,7.247-15.261,13.771
		c-2.771-5.271-7.028-11.562-12.996-14.332c-7.053-3.185-11.98-0.471-12.937,5.465C568.717,466.307,569.382,468.631,570.389,471.628
		L570.389,471.628z"/>
	<path fill-rule="evenodd" clip-rule="evenodd" fill="#A03032" d="M571.204,471.951c3.92,11.716,11.877,21.676,22.786,28.025
		c9.617-7.131,24.614-18.26,28.063-29.957c2.674-9.623-2.383-15.333-12.123-11.076c-5.801,2.965-9.973,7.015-14.758,13.323
		c-2.681-5.095-6.802-11.18-12.568-13.854c-6.821-3.081-11.588-0.459-12.512,5.283C569.588,466.804,570.229,469.052,571.204,471.951
		L571.204,471.951z"/>
	<path fill-rule="evenodd" clip-rule="evenodd" fill="#A23132" d="M572.017,472.28c3.785,11.309,11.471,20.934,22.012,27.068
		c9.293-6.892,23.774-17.632,27.107-28.935c2.584-9.294-2.307-14.81-11.71-10.696c-5.6,2.855-9.629,6.775-14.254,12.866
		c-2.591-4.921-6.569-10.799-12.143-13.382c-6.582-2.973-11.194-0.44-12.085,5.102C570.461,467.313,571.081,469.484,572.017,472.28
		L572.017,472.28z"/>
	<path fill-rule="evenodd" clip-rule="evenodd" fill="#A22F33" d="M572.837,472.609c3.649,10.909,11.063,20.19,21.229,26.107
		c8.965-6.64,22.936-17.013,26.151-27.916c2.493-8.965-2.229-14.279-11.296-10.308c-5.405,2.751-9.294,6.529-13.75,12.407
		c-2.501-4.746-6.343-10.418-11.717-12.912c-6.35-2.866-10.793-0.426-11.651,4.923C571.333,467.817,571.932,469.91,572.837,472.609
		L572.837,472.609z"/>
	<path fill-rule="evenodd" clip-rule="evenodd" fill="#A53132" d="M573.652,472.934c3.52,10.514,10.662,19.453,20.454,25.156
		c8.636-6.4,22.089-16.386,25.189-26.888c2.402-8.643-2.145-13.758-10.883-9.935c-5.207,2.648-8.946,6.292-13.247,11.949
		c-2.409-4.573-6.104-10.036-11.284-12.439c-6.115-2.764-10.398-0.407-11.226,4.74C572.204,468.314,572.779,470.336,573.652,472.934
		L573.652,472.934z"/>
	<path fill-rule="evenodd" clip-rule="evenodd" fill="#A63033" d="M574.464,473.263c3.385,10.113,10.257,18.71,19.681,24.201
		c8.306-6.161,21.249-15.767,24.227-25.875c2.313-8.306-2.061-13.233-10.464-9.552c-5.012,2.552-8.608,6.052-12.742,11.502
		c-2.319-4.403-5.871-9.661-10.858-11.967c-5.883-2.655-10.004-0.395-10.798,4.56C573.077,468.819,573.625,470.762,574.464,473.263
		L574.464,473.263z"/>
	<path fill-rule="evenodd" clip-rule="evenodd" fill="#A83133" d="M575.28,473.592c3.248,9.714,9.85,17.968,18.896,23.238
		c7.978-5.916,20.417-15.14,23.278-24.84c2.216-7.984-1.982-12.718-10.057-9.185c-4.812,2.453-8.268,5.813-12.239,11.045
		c-2.222-4.226-5.639-9.276-10.424-11.491c-5.658-2.551-9.604-0.381-10.374,4.387C573.942,469.322,574.477,471.189,575.28,473.592
		L575.28,473.592z"/>
	<path fill-rule="evenodd" clip-rule="evenodd" fill="#AA3033" d="M576.099,473.921c3.119,9.313,9.442,17.225,18.116,22.282
		c7.654-5.67,19.577-14.513,22.321-23.82c2.126-7.653-1.897-12.187-9.643-8.803c-4.61,2.352-7.931,5.575-11.735,10.593
		c-2.132-4.057-5.406-8.895-9.998-11.019c-5.418-2.455-9.211-0.362-9.946,4.197C574.82,469.826,575.324,471.615,576.099,473.921
		L576.099,473.921z"/>
	<path fill-rule="evenodd" clip-rule="evenodd" fill="#AB3033" d="M576.913,474.25c2.984,8.913,9.042,16.489,17.342,21.327
		c7.324-5.431,18.737-13.899,21.359-22.8c2.035-7.323-1.815-11.664-9.223-8.421c-4.419,2.247-7.59,5.334-11.232,10.126
		c-2.047-3.875-5.18-8.506-9.572-10.54c-5.186-2.346-8.816-0.35-9.521,4.018C575.692,470.331,576.177,472.041,576.913,474.25
		L576.913,474.25z"/>
	<path fill-rule="evenodd" clip-rule="evenodd" fill="#AD3132" d="M577.727,474.573c2.854,8.513,8.636,15.753,16.565,20.37
		c6.995-5.179,17.892-13.266,20.405-21.777c1.942-6.99-1.739-11.136-8.817-8.042c-4.211,2.15-7.246,5.096-10.728,9.682
		c-1.951-3.707-4.941-8.125-9.14-10.076c-4.954-2.235-8.416-0.329-9.088,3.837C576.557,470.834,577.022,472.468,577.727,474.573
		L577.727,474.573z"/>
	<path fill-rule="evenodd" clip-rule="evenodd" fill="#AE2F34" d="M578.541,474.902c2.719,8.113,8.234,15.01,15.791,19.409
		c6.666-4.935,17.052-12.646,19.442-20.746c1.853-6.665-1.654-10.624-8.398-7.673c-4.016,2.054-6.91,4.857-10.223,9.224
		c-1.86-3.527-4.716-7.738-8.707-9.599c-4.728-2.131-8.028-0.31-8.667,3.662C577.43,471.338,577.875,472.895,578.541,474.902
		L578.541,474.902z"/>
	<path fill-rule="evenodd" clip-rule="evenodd" fill="#B03134" d="M579.361,475.232c2.583,7.711,7.822,14.273,15.01,18.458
		c6.336-4.7,16.212-12.024,18.484-19.737c1.765-6.329-1.575-10.088-7.988-7.285c-3.816,1.95-6.562,4.618-9.721,8.771
		c-1.764-3.359-4.477-7.363-8.274-9.126c-4.487-2.029-7.634-0.305-8.241,3.48C578.301,471.841,578.721,473.32,579.361,475.232
		L579.361,475.232z"/>
	<path fill-rule="evenodd" clip-rule="evenodd" fill="#B13133" d="M580.175,475.556c2.448,7.317,7.421,13.536,14.233,17.503
		c6.008-4.457,15.373-11.407,17.524-18.705c1.672-6.013-1.492-9.578-7.571-6.918c-3.623,1.848-6.226,4.381-9.216,8.313
		c-1.674-3.178-4.25-6.976-7.847-8.649c-4.257-1.918-7.234-0.283-7.815,3.302C579.174,472.339,579.574,473.746,580.175,475.556
		L580.175,475.556z"/>
	<path fill-rule="evenodd" clip-rule="evenodd" fill="#B33033" d="M580.996,475.885c2.311,6.918,7.007,12.794,13.446,16.547
		c5.685-4.218,14.532-10.78,16.574-17.69c1.575-5.678-1.409-9.042-7.164-6.529c-3.423,1.749-5.884,4.14-8.713,7.859
		c-1.575-3.009-4.011-6.601-7.414-8.176c-4.024-1.821-6.841-0.271-7.383,3.112C580.045,472.849,580.42,474.173,580.996,475.885
		L580.996,475.885z"/>
	<path fill-rule="evenodd" clip-rule="evenodd" fill="#B53133" d="M581.808,476.214c2.185,6.511,6.608,12.052,12.673,15.585
		c5.354-3.965,13.692-10.152,15.611-16.657c1.485-5.354-1.331-8.525-6.744-6.162c-3.229,1.647-5.548,3.901-8.209,7.408
		c-1.491-2.835-3.784-6.219-6.995-7.706c-3.784-1.71-6.439-0.257-6.955,2.934C580.911,473.353,581.266,474.599,581.808,476.214
		L581.808,476.214z"/>
	<path fill-rule="evenodd" clip-rule="evenodd" fill="#B63234" d="M582.628,476.543c2.049,6.117,6.201,11.311,11.898,14.629
		c5.017-3.72,12.846-9.532,14.646-15.643c1.396-5.012-1.246-7.996-6.328-5.774c-3.029,1.544-5.206,3.655-7.706,6.95
		c-1.401-2.661-3.552-5.832-6.563-7.234c-3.559-1.602-6.045-0.232-6.529,2.765C581.79,473.855,582.119,475.031,582.628,476.543
		L582.628,476.543z"/>
	<path fill-rule="evenodd" clip-rule="evenodd" fill="#B83134" d="M583.443,476.872c1.911,5.71,5.794,10.567,11.115,13.667
		c4.695-3.475,12.013-8.899,13.693-14.61c1.311-4.695-1.163-7.479-5.91-5.399c-2.829,1.441-4.863,3.418-7.202,6.498
		c-1.312-2.492-3.319-5.458-6.135-6.762c-3.328-1.505-5.652-0.227-6.104,2.576C582.662,474.36,582.971,475.459,583.443,476.872
		L583.443,476.872z"/>
	<path fill-rule="evenodd" clip-rule="evenodd" fill="#B83233" d="M584.256,477.195c1.775,5.322,5.387,9.836,10.341,12.724
		c4.366-3.241,11.167-8.286,12.737-13.596c1.214-4.366-1.086-6.955-5.505-5.024c-2.634,1.343-4.526,3.184-6.696,6.045
		c-1.214-2.318-3.088-5.07-5.703-6.291c-3.094-1.389-5.258-0.199-5.677,2.396C583.526,474.869,583.818,475.885,584.256,477.195
		L584.256,477.195z"/>
	<path fill-rule="evenodd" clip-rule="evenodd" fill="#BA3235" d="M585.071,477.532c1.646,4.908,4.985,9.087,9.564,11.754
		c4.037-2.997,10.328-7.659,11.775-12.569c1.123-4.042-1.002-6.432-5.084-4.649c-2.435,1.239-4.185,2.944-6.2,5.593
		c-1.117-2.144-2.849-4.688-5.271-5.813c-2.861-1.292-4.862-0.193-5.244,2.209C584.399,475.367,584.663,476.311,585.071,477.532
		L585.071,477.532z"/>
	<path fill-rule="evenodd" clip-rule="evenodd" fill="#BC3134" d="M585.884,477.854c1.512,4.521,4.586,8.357,8.79,10.8
		c3.708-2.746,9.487-7.034,10.813-11.543c1.033-3.713-0.917-5.909-4.671-4.27c-2.233,1.137-3.842,2.7-5.689,5.136
		c-1.033-1.971-2.622-4.309-4.845-5.342c-2.627-1.189-4.463-0.181-4.818,2.035C585.264,475.871,585.516,476.743,585.884,477.854
		L585.884,477.854z"/>
	<path fill-rule="evenodd" clip-rule="evenodd" fill="#BD3235" d="M586.705,478.184c1.376,4.114,4.172,7.614,8.009,9.844
		c3.377-2.506,8.647-6.414,9.856-10.521c0.941-3.385-0.84-5.387-4.264-3.89c-2.034,1.035-3.494,2.462-5.18,4.678
		c-0.943-1.795-2.39-3.928-4.419-4.871c-2.388-1.084-4.068-0.154-4.391,1.861C586.143,476.376,586.363,477.162,586.705,478.184
		L586.705,478.184z"/>
	<path fill-rule="evenodd" clip-rule="evenodd" fill="#C03135" d="M587.524,478.513c1.241,3.715,3.767,6.873,7.228,8.888
		c3.049-2.261,7.809-5.787,8.901-9.508c0.845-3.048-0.757-4.856-3.851-3.5c-1.834,0.937-3.158,2.223-4.676,4.224
		c-0.854-1.621-2.157-3.552-3.985-4.405c-2.163-0.968-3.675-0.141-3.973,1.68C587.014,476.879,587.214,477.596,587.524,478.513
		L587.524,478.513z"/>
	<path fill-rule="evenodd" clip-rule="evenodd" fill="#C13034" d="M588.339,478.836c1.11,3.319,3.357,6.137,6.451,7.932
		c2.719-2.016,6.962-5.167,7.938-8.474c0.755-2.726-0.672-4.341-3.43-3.14c-1.641,0.84-2.823,1.989-4.18,3.771
		c-0.755-1.446-1.925-3.164-3.559-3.919c-1.925-0.873-3.274-0.13-3.539,1.492C587.879,477.377,588.061,478.022,588.339,478.836
		L588.339,478.836z"/>
	<path fill-rule="evenodd" clip-rule="evenodd" fill="#C32F34" d="M589.152,479.172c0.976,2.906,2.958,5.387,5.671,6.969
		c2.396-1.775,6.129-4.54,6.988-7.452c0.666-2.397-0.594-3.819-3.022-2.76c-1.439,0.737-2.479,1.744-3.669,3.321
		c-0.672-1.272-1.691-2.791-3.125-3.449c-1.699-0.77-2.888-0.116-3.12,1.311C588.752,477.888,588.913,478.449,589.152,479.172
		L589.152,479.172z"/>
	<path fill-rule="evenodd" clip-rule="evenodd" fill="#C53134" d="M589.966,479.494c0.846,2.52,2.551,4.651,4.896,6.021
		c2.065-1.537,5.288-3.927,6.025-6.433c0.574-2.067-0.511-3.294-2.603-2.377c-1.248,0.632-2.139,1.497-3.172,2.854
		c-0.575-1.092-1.46-2.402-2.699-2.971c-1.46-0.665-2.486-0.104-2.688,1.13C589.624,478.391,589.759,478.875,589.966,479.494
		L589.966,479.494z"/>
	<path fill-rule="evenodd" clip-rule="evenodd" fill="#C73134" d="M590.787,479.825c0.704,2.111,2.144,3.906,4.114,5.056
		c1.737-1.284,4.442-3.293,5.07-5.411c0.478-1.731-0.433-2.765-2.19-1.996c-1.046,0.535-1.802,1.266-2.667,2.409
		c-0.485-0.924-1.228-2.021-2.268-2.506c-1.233-0.556-2.093-0.079-2.26,0.956C590.495,478.895,590.611,479.301,590.787,479.825
		L590.787,479.825z"/>
	<path fill-rule="evenodd" clip-rule="evenodd" fill="#C93034" d="M591.6,480.154c0.575,1.711,1.744,3.171,3.34,4.095
		c1.408-1.04,3.603-2.668,4.107-4.38c0.395-1.408-0.349-2.247-1.777-1.628c-0.845,0.439-1.459,1.034-2.156,1.951
		c-0.394-0.742-1.001-1.635-1.841-2.028c-1.001-0.452-1.699-0.063-1.835,0.775C591.368,479.397,591.458,479.727,591.6,480.154
		L591.6,480.154z"/>
	<path fill-rule="evenodd" clip-rule="evenodd" fill="#CA3034" d="M592.415,480.477c0.445,1.317,1.336,2.436,2.564,3.151
		c1.077-0.801,2.763-2.054,3.15-3.364c0.297-1.079-0.271-1.725-1.362-1.246c-0.651,0.336-1.118,0.786-1.66,1.497
		c-0.297-0.573-0.762-1.253-1.407-1.556c-0.77-0.343-1.305-0.053-1.408,0.594C592.234,479.902,592.311,480.154,592.415,480.477
		L592.415,480.477z"/>
	<path fill-rule="evenodd" clip-rule="evenodd" fill="#CB3134" d="M593.235,480.806c0.31,0.918,0.93,1.699,1.782,2.19
		c0.748-0.556,1.924-1.428,2.195-2.339c0.207-0.749-0.187-1.202-0.949-0.865c-0.452,0.232-0.781,0.543-1.156,1.04
		c-0.206-0.4-0.529-0.872-0.981-1.086c-0.53-0.238-0.904-0.032-0.976,0.413C593.112,480.398,593.156,480.58,593.235,480.806
		L593.235,480.806z"/>
	<path fill-rule="evenodd" clip-rule="evenodd" fill="#CD3034" d="M594.048,481.136c0.174,0.516,0.522,0.956,1.008,1.233
		c0.419-0.316,1.079-0.808,1.233-1.317c0.116-0.421-0.104-0.678-0.536-0.491c-0.252,0.136-0.44,0.31-0.646,0.588
		c-0.123-0.227-0.304-0.491-0.556-0.607c-0.297-0.143-0.511-0.026-0.549,0.232C593.977,480.909,594.009,481.006,594.048,481.136
		L594.048,481.136z"/>
	<path fill-rule="evenodd" clip-rule="evenodd" fill="#CF3035" d="M594.868,481.458c0.039,0.116,0.116,0.22,0.221,0.285
		c0.097-0.077,0.244-0.182,0.277-0.298c0.025-0.097-0.02-0.154-0.116-0.116c-0.058,0.032-0.097,0.071-0.149,0.136
		c-0.024-0.053-0.063-0.11-0.121-0.136c-0.072-0.033-0.116-0.007-0.123,0.052C594.849,481.407,594.856,481.434,594.868,481.458
		L594.868,481.458z"/>
	<path fill-rule="evenodd" clip-rule="evenodd" fill="#332727" d="M545.09,461.462c-2.027-6.071-3.372-10.772-2.318-17.283
		c1.931-12.013,11.909-17.498,26.171-11.058c12.077,5.6,20.693,18.329,26.307,28.993c10.024-13.195,18.749-21.683,30.885-27.87
		c20.379-8.912,30.971,3.036,25.371,23.161c-7.221,24.493-38.598,47.77-58.729,62.696
		C569.944,506.803,553.292,485.967,545.09,461.462L545.09,461.462z M595.876,453.685c-9.393-14.092-14.487-19.84-27.851-26.583
		c-7.324-2.823-18.621-2.335-24.356,3.361c-5.787,5.932-6.924,16.777-5.405,25.084c6.199,30.265,27.533,55.842,54.402,71.148
		c23.846-16.521,54.957-40.226,63.573-69.031c2.047-7.376,2.687-17.852-1.389-24.039c-2.501-3.791-6.485-6.272-11.528-6.889
		C625.476,423.63,607.308,439.017,595.876,453.685L595.876,453.685z"/>
	<g>
		<defs>
			<path id="SVGID_1_" d="M437.513,614.16l49.539,0.077l0.191,22.335c12.046-2.622,19.702-4.314,32.019-5.038l0.059,48.958
				c-6.781,0.943-26.326,4.637-32.261,9.7c0.071,44.23-0.626,89.06,0.039,133.199c-16.302,0.085-33.185,0.059-49.484,0.013
				L437.513,614.16L437.513,614.16z M596.218,443.313c16.25-21.353,36.195-26.161,48.401-24.097
				c10.954,1.851,26.184,13.247,18.717,40.11c-6.168,22.198-27.248,47.8-69.825,75.806c-22.948-11.077-53.813-38.068-62.843-79.572
				c-1.894-11.612,0.975-23.678,7.918-30.795c7.59-7.78,19.706-8.245,32.306-3.268C580.737,426.552,589.617,431.422,596.218,443.313
				L596.218,443.313z M767.563,615.013v57.418c-4.792-4.585-12.518-9.461-20.101-11.438c-9.739-2.538-16.088-0.535-18.84,4.76
				c-6.814,13.17,8.48,27.58,17.084,37.055c11.651,14.055,21.216,24.459,26.811,40.98c7.414,22.6,2.131,48.234-10.987,62.521
				c-11.787,12.829-30.427,20.908-49.9,20.185c-28.419,0.407-74.772,5.426-96.39-16.489c-1.654-2.048-3.495-3.933-4.574-6.337
				c-1.045,0.039-13.04,26.934-43.357,25.983c-21.855-0.683-35.503-19.685-35.897-44.584l0.168-170.848h45.702v166.96
				c8.235-3.127,23.859-24.491,23.859-33.301l0.026-133.659h45.753v158.17c0,1.453,0.484,13.227,13.693,15.823
				c13.569,2.093,27.829,0.013,41.38-1.499c10.464-2.144,18.944-3.836,22.975-12.769c7.111-15.767-11.394-32.087-20.532-42.803
				c-19.842-21.216-32.229-44.5-23.943-77.764c6.098-21.966,27.127-38.106,45.444-41.749
				C738.706,609.031,754.271,610.35,767.563,615.013L767.563,615.013z M836.782,630.074c8.241-11.367,17.115-18.084,28.566-18.943
				c21.644-0.387,35.059,18.749,37.674,38.365c0.518,49.339-0.012,105.135,0.143,161.417c1.253,9.056,9.63,13.952,16.335,12.085
				c15.94-3.76,13.11-39.721,57.67-45.024c-7.873,33.689-18.518,51.18-63.916,52.742c-18.789,0.691-40.465-2.822-53.769-7.015
				c-0.272-42.117-0.278-127.051-0.104-166.682c-10.043,5.95-18.129,15.896-23.897,30.887l-0.155,135.466l-47.956,0.078
				l-0.02-273.949c19.732-11.219,33.876-20.002,49.5-30.194L836.782,630.074L836.782,630.074z M623.41,545.271l-0.025-0.388
				c48.099,3.805,100.059-13.078,137.784-35.961c34.664-22.154,55.732-42.667,66.234-64.511
				c9.908-20.578,13.299-49.785,13.37-82.491c-7.912,7.905-16.405,13.795-26.894,13.027c-19.914-1.462-38.966-17.112-38.902-44.007
				l-0.097-166.152l49.358-0.545l0.219,157.916c8.862-8.835,16.671-14.742,16.671-31.208l-0.213-126.572l50.01,0.21l-0.29,199.182
				c0,53.733-26.197,120.99-68.974,153.857c-41.666,31.7-93.504,52.148-142.131,56.604c-27.024,2.481-53.557,0.452-79.54-6.135
				c-27.359,10.029-56.986,14.247-87.827,7.789c-64.494-13.512-74.511-34.108-117.821-52.136
				c-30.986-12.891-65.57-12.555-101.132,8.732c-37.344,23.987-58.961,71.653-56.343,123.124
				c2.722,41.097,24.786,76.227,58.533,98.134c34.076,22.019,83.987,25.764,124.387,5.607l-0.02,58.832
				c-52.394,17.735-107.62,10.225-151.785-16.638c-50.691-30.835-83.392-83.854-86.267-143.088
				c-3.568-73.669,28.997-140.994,84.562-173.017c37.932-21.864,77.288-22.871,112.702-15.14
				c34.544,7.544,65.753,26.028,101.707,47.535c27.982,20.553,58.817,30.196,86.349,24.75
				c-27.571-17.179-62.358-56.952-68.113-90.099c-4.983-28.7,9.404-58.342,39.256-66.558c20.947-3.927,48.842,0.423,57.838,31.519
				c14.61-24.343,41.919-37.077,61.158-33.324c26.45,4.999,45.632,39.298,34.632,79.149
				C681.551,495.287,649.716,532.845,623.41,545.271L623.41,545.271z M254.833,26.987l0.152,58.675
				c-30.595-15.172-65.152-16.699-91.214-9.679c-54.127,14.581-95.295,65.411-92.822,127.135
				c3.672,68.324,56.985,116.035,120.565,119.549c20.698,1.143,41.65-3.036,62.906-12.233l17.435,46.335
				c-20.6,16.405-63.425,22.806-99.207,18.298c-44.94-5.387-84.029-28.849-112.034-61.488
				c-27.882-31.767-42.44-70.643-43.012-115.566C16.75,131.2,53.465,74.236,104.428,43.083
				C148.645,16.056,200.538,10.159,254.833,26.987L254.833,26.987z M411.779,222.358l-0.172,98.871
				c5.6,15.869,18.814,13.36,28.051,8.574l0.081-165.506c16.179,0.039,33.417-0.149,49.594,0.054l0.077,14.752
				c9.307-12.717,21.889-19.467,36.311-19.234c20.029,1.308,29.898,23.026,29.898,46.109l0.059,161.837l-45.93,12.129l0.123-156.195
				c-0.4-5.752,0.201-11.5-0.161-17.097c-10.886,7.644-24.059,23.032-24.059,36.231l0.151,130.834
				c-23.617-0.012-43.713,0.572-61.09-0.306c-9.873-0.497-17.419-1.46-26.866-4.011c-5.002-1.091-9.407-3.094-14.096-6.304
				c-14.875,10.493-31.773,15.049-48.186,13.821c-32.113-2.409-62.547-27.365-65.583-65.708
				c-1.505-20.807,6.746-40.784,21.976-55.304c11.875-11.319,28.574-19.001,45.225-19.16c10.314-0.1,16.324,1.608,25.244,7.627
				l0.058-21.966c-0.497-8.681-7.728-13.473-14.315-13.215c-7.47,0.301-12.553,6.756-12.859,14.064L287.463,210
				c7.934-36.473,40.874-53.385,69.095-50.053C384.077,163.196,411.779,186.657,411.779,222.358L411.779,222.358z M322.447,321.704
				c9.497,11.693,28.786,10.814,37.17-1.57c9.869-12.927,2.765-31.228-11.571-35.785c-11.642-4.134-23.465,1.689-28.319,10.657
				C315.468,302.88,315.181,313.165,322.447,321.704L322.447,321.704z M753.372,43.415l-0.264,277.391
				c0.994,4.363,6.032,6.611,14.545,6.797l5.924,48.848c-14.694,0.862-36.784-3.701-48.874-13.327
				c-28.755,21.813-76.182,15.662-106.292-3.055c-29.02-18.04-49.778-48.509-49.396-90.478
				c-0.117-41.766,20.578-76.886,58.755-99.071c21.134-12.119,52.161-16.076,76.032-9.539c0.059-26.571,0.116-52.197-0.031-78.765
				L753.372,43.415L753.372,43.415z M704.046,323.506l0.007-111.236c-42.775-17.319-83.557,14.562-85.688,53.637
				C616.595,310.589,663.764,345.056,704.046,323.506L704.046,323.506z"/>
		</defs>
		<clipPath id="SVGID_2_">
			<use xlink:href="#SVGID_1_"  overflow="visible"/>
		</clipPath>
		<polygon clip-path="url(#SVGID_2_)" fill-rule="evenodd" clip-rule="evenodd" fill="#E4BA48" points="16.753,835.915 
			16.753,837.724 977.169,837.724 977.169,835.915 16.753,835.915 		"/>
		<polygon clip-path="url(#SVGID_2_)" fill-rule="evenodd" clip-rule="evenodd" fill="#E1B447" points="16.753,845.636 
			16.753,821.899 977.169,821.899 977.169,845.636 16.753,845.636 		"/>
		<polygon clip-path="url(#SVGID_2_)" fill-rule="evenodd" clip-rule="evenodd" fill="#E1B146" points="16.753,829.812 
			16.753,806.075 977.169,806.075 977.169,829.812 16.753,829.812 		"/>
		<polygon clip-path="url(#SVGID_2_)" fill-rule="evenodd" clip-rule="evenodd" fill="#DFAD44" points="16.753,813.987 
			16.753,790.251 977.169,790.251 977.169,813.987 16.753,813.987 		"/>
		<polygon clip-path="url(#SVGID_2_)" fill-rule="evenodd" clip-rule="evenodd" fill="#DEAA43" points="16.753,798.165 
			16.753,774.428 977.169,774.428 977.169,798.165 16.753,798.165 		"/>
		<polygon clip-path="url(#SVGID_2_)" fill-rule="evenodd" clip-rule="evenodd" fill="#DDA643" points="16.753,782.341 
			16.75,758.604 977.169,758.598 977.169,782.341 16.753,782.341 		"/>
		<polygon clip-path="url(#SVGID_2_)" fill-rule="evenodd" clip-rule="evenodd" fill="#D9A144" points="16.753,766.517 
			16.75,742.773 977.169,742.773 977.169,766.517 16.753,766.517 		"/>
		<polygon clip-path="url(#SVGID_2_)" fill-rule="evenodd" clip-rule="evenodd" fill="#D89E43" points="16.75,750.692 
			16.75,726.956 977.169,726.949 977.169,750.686 16.75,750.692 		"/>
		<polygon clip-path="url(#SVGID_2_)" fill-rule="evenodd" clip-rule="evenodd" fill="#D59941" points="16.75,734.868 
			16.75,711.132 977.169,711.125 977.169,734.861 16.75,734.868 		"/>
		<polygon clip-path="url(#SVGID_2_)" fill-rule="evenodd" clip-rule="evenodd" fill="#D4963F" points="16.75,719.037 
			16.75,695.308 977.169,695.301 977.169,719.037 16.75,719.037 		"/>
		<polygon clip-path="url(#SVGID_2_)" fill-rule="evenodd" clip-rule="evenodd" fill="#D4933E" points="16.75,703.213 
			16.75,679.477 977.169,679.477 977.169,703.213 16.75,703.213 		"/>
		<polygon clip-path="url(#SVGID_2_)" fill-rule="evenodd" clip-rule="evenodd" fill="#D28E3D" points="16.75,687.391 16.75,663.66 
			977.169,663.654 977.169,687.391 16.75,687.391 		"/>
		<polygon clip-path="url(#SVGID_2_)" fill-rule="evenodd" clip-rule="evenodd" fill="#D08B3C" points="16.75,671.566 16.75,647.83 
			977.169,647.83 977.169,671.566 16.75,671.566 		"/>
		<polygon clip-path="url(#SVGID_2_)" fill-rule="evenodd" clip-rule="evenodd" fill="#CF873B" points="16.75,655.742 
			16.75,632.006 977.169,632.006 977.169,655.742 16.75,655.742 		"/>
		<polygon clip-path="url(#SVGID_2_)" fill-rule="evenodd" clip-rule="evenodd" fill="#D08A3C" points="16.75,639.918 
			16.75,616.182 977.169,616.182 977.169,639.918 16.75,639.918 		"/>
		<polygon clip-path="url(#SVGID_2_)" fill-rule="evenodd" clip-rule="evenodd" fill="#D28E3D" points="16.75,624.094 
			16.75,600.357 977.169,600.351 977.169,624.094 16.75,624.094 		"/>
		<polygon clip-path="url(#SVGID_2_)" fill-rule="evenodd" clip-rule="evenodd" fill="#D4933F" points="16.75,608.27 16.75,584.533 
			977.169,584.526 977.169,608.27 16.75,608.27 		"/>
		<polygon clip-path="url(#SVGID_2_)" fill-rule="evenodd" clip-rule="evenodd" fill="#D59740" points="16.75,592.445 
			16.75,568.704 977.169,568.704 977.169,592.445 16.75,592.445 		"/>
		<polygon clip-path="url(#SVGID_2_)" fill-rule="evenodd" clip-rule="evenodd" fill="#D89C43" points="16.75,576.621 16.75,552.88 
			977.169,552.88 977.169,576.621 16.75,576.621 		"/>
		<polygon clip-path="url(#SVGID_2_)" fill-rule="evenodd" clip-rule="evenodd" fill="#DAA144" points="16.75,560.797 
			16.75,537.056 977.169,537.056 977.169,560.797 16.75,560.797 		"/>
		<polygon clip-path="url(#SVGID_2_)" fill-rule="evenodd" clip-rule="evenodd" fill="#DDA644" points="16.75,544.974 
			16.75,521.231 977.169,521.231 977.169,544.974 16.75,544.974 		"/>
		<polygon clip-path="url(#SVGID_2_)" fill-rule="evenodd" clip-rule="evenodd" fill="#DFAA44" points="16.75,529.15 16.75,505.407 
			977.169,505.407 977.169,529.144 16.75,529.15 		"/>
		<polygon clip-path="url(#SVGID_2_)" fill-rule="evenodd" clip-rule="evenodd" fill="#DFAE45" points="16.75,513.326 
			16.75,489.583 977.169,489.583 977.169,513.326 16.75,513.326 		"/>
		<polygon clip-path="url(#SVGID_2_)" fill-rule="evenodd" clip-rule="evenodd" fill="#DFAE44" points="16.75,497.502 
			16.75,473.759 977.169,473.759 977.169,497.495 16.75,497.502 		"/>
		<polygon clip-path="url(#SVGID_2_)" fill-rule="evenodd" clip-rule="evenodd" fill="#DFAE44" points="16.75,481.678 
			16.75,457.935 977.169,457.935 977.169,481.671 16.75,481.678 		"/>
		<polygon clip-path="url(#SVGID_2_)" fill-rule="evenodd" clip-rule="evenodd" fill="#DFAE43" points="16.75,465.847 
			16.75,442.112 977.169,442.112 977.169,465.847 16.75,465.847 		"/>
		<polygon clip-path="url(#SVGID_2_)" fill-rule="evenodd" clip-rule="evenodd" fill="#E0AF42" points="16.75,450.022 
			16.75,426.288 977.169,426.288 977.169,450.022 16.75,450.022 		"/>
		<polygon clip-path="url(#SVGID_2_)" fill-rule="evenodd" clip-rule="evenodd" fill="#E1B042" points="16.75,434.2 16.75,410.464 
			977.169,410.464 977.169,434.2 16.75,434.2 		"/>
		<polygon clip-path="url(#SVGID_2_)" fill-rule="evenodd" clip-rule="evenodd" fill="#E1B042" points="16.75,418.375 16.75,394.64 
			977.169,394.636 977.169,418.373 16.75,418.375 		"/>
		<polygon clip-path="url(#SVGID_2_)" fill-rule="evenodd" clip-rule="evenodd" fill="#E1B141" points="16.75,402.552 
			16.75,378.815 977.169,378.812 977.169,402.548 16.75,402.552 		"/>
		<polygon clip-path="url(#SVGID_2_)" fill-rule="evenodd" clip-rule="evenodd" fill="#E1B140" points="16.75,386.724 
			16.75,362.989 977.169,362.989 977.169,386.724 16.75,386.724 		"/>
		<polygon clip-path="url(#SVGID_2_)" fill-rule="evenodd" clip-rule="evenodd" fill="#E1B13F" points="16.75,370.904 
			16.75,347.167 977.169,347.165 977.169,370.9 16.75,370.904 		"/>
		<polygon clip-path="url(#SVGID_2_)" fill-rule="evenodd" clip-rule="evenodd" fill="#E2B23E" points="16.75,355.077 16.75,331.34 
			977.169,331.34 977.169,355.077 16.75,355.077 		"/>
		<polygon clip-path="url(#SVGID_2_)" fill-rule="evenodd" clip-rule="evenodd" fill="#E3B23D" points="16.75,339.252 
			16.75,315.517 977.169,315.514 977.169,339.249 16.75,339.252 		"/>
		<polygon clip-path="url(#SVGID_2_)" fill-rule="evenodd" clip-rule="evenodd" fill="#E3B43C" points="16.75,323.428 
			16.75,299.692 977.169,299.689 977.169,323.428 16.75,323.428 		"/>
		<polygon clip-path="url(#SVGID_2_)" fill-rule="evenodd" clip-rule="evenodd" fill="#E2B43C" points="16.75,307.604 
			16.75,283.868 977.169,283.865 977.169,307.602 16.75,307.604 		"/>
		<polygon clip-path="url(#SVGID_2_)" fill-rule="evenodd" clip-rule="evenodd" fill="#E4B83F" points="16.75,291.78 16.75,268.045 
			977.169,268.041 977.169,291.777 16.75,291.78 		"/>
		<polygon clip-path="url(#SVGID_2_)" fill-rule="evenodd" clip-rule="evenodd" fill="#E4BC41" points="16.75,275.957 
			16.75,252.217 977.169,252.217 977.169,275.953 16.75,275.957 		"/>
		<polygon clip-path="url(#SVGID_2_)" fill-rule="evenodd" clip-rule="evenodd" fill="#E6BE44" points="16.75,260.129 
			16.75,236.393 977.169,236.39 977.169,260.129 16.75,260.129 		"/>
		<polygon clip-path="url(#SVGID_2_)" fill-rule="evenodd" clip-rule="evenodd" fill="#E7C347" points="16.75,244.305 
			16.75,220.569 977.169,220.569 977.169,244.305 16.75,244.305 		"/>
		<polygon clip-path="url(#SVGID_2_)" fill-rule="evenodd" clip-rule="evenodd" fill="#EAC74A" points="16.75,228.481 
			16.75,204.746 977.169,204.746 977.169,228.481 16.75,228.481 		"/>
		<polygon clip-path="url(#SVGID_2_)" fill-rule="evenodd" clip-rule="evenodd" fill="#EDCC4D" points="16.75,212.657 
			16.75,188.921 977.169,188.918 977.169,212.654 16.75,212.657 		"/>
		<polygon clip-path="url(#SVGID_2_)" fill-rule="evenodd" clip-rule="evenodd" fill="#EECF50" points="16.75,196.833 
			16.75,173.094 977.169,173.094 977.169,196.833 16.75,196.833 		"/>
		<polygon clip-path="url(#SVGID_2_)" fill-rule="evenodd" clip-rule="evenodd" fill="#EFD352" points="16.75,181.009 16.75,157.27 
			977.169,157.27 977.169,181.006 16.75,181.009 		"/>
		<polygon clip-path="url(#SVGID_2_)" fill-rule="evenodd" clip-rule="evenodd" fill="#F0D655" points="16.75,165.186 
			16.75,141.446 977.169,141.446 977.169,165.182 16.75,165.186 		"/>
		<polygon clip-path="url(#SVGID_2_)" fill-rule="evenodd" clip-rule="evenodd" fill="#F1DA57" points="16.75,149.358 
			16.75,125.622 977.169,125.619 977.169,149.358 16.75,149.358 		"/>
		<polygon clip-path="url(#SVGID_2_)" fill-rule="evenodd" clip-rule="evenodd" fill="#F1DA56" points="16.75,133.534 
			16.75,109.798 977.169,109.795 977.169,133.534 16.75,133.534 		"/>
		<polygon clip-path="url(#SVGID_2_)" fill-rule="evenodd" clip-rule="evenodd" fill="#F1DA56" points="16.75,117.71 16.75,93.975 
			977.169,93.975 977.169,117.71 16.75,117.71 		"/>
		<polygon clip-path="url(#SVGID_2_)" fill-rule="evenodd" clip-rule="evenodd" fill="#F2DA54" points="16.75,101.886 16.75,78.15 
			977.169,78.147 977.169,101.883 16.75,101.886 		"/>
		<polygon clip-path="url(#SVGID_2_)" fill-rule="evenodd" clip-rule="evenodd" fill="#F1D855" points="16.75,86.063 16.75,62.323 
			977.169,62.323 977.169,86.059 16.75,86.063 		"/>
		<polygon clip-path="url(#SVGID_2_)" fill-rule="evenodd" clip-rule="evenodd" fill="#F1D854" points="16.75,70.235 16.75,46.499 
			977.169,46.499 977.169,70.235 16.75,70.235 		"/>
		<polygon clip-path="url(#SVGID_2_)" fill-rule="evenodd" clip-rule="evenodd" fill="#F1D853" points="16.75,54.414 16.75,30.675 
			977.169,30.675 977.169,54.411 16.75,54.414 		"/>
		<polygon clip-path="url(#SVGID_2_)" fill-rule="evenodd" clip-rule="evenodd" fill="#F0D753" points="16.75,38.587 16.75,14.851 
			977.169,14.851 977.169,38.587 16.75,38.587 		"/>
		<polygon clip-path="url(#SVGID_2_)" fill-rule="evenodd" clip-rule="evenodd" fill="#F1D852" points="16.75,22.763 16.75,10.159 
			977.169,10.156 977.169,22.76 16.75,22.763 		"/>
	</g>
	<g>
		<defs>
			<path id="SVGID_3_" d="M483.225,819.594c-0.575-43.131,0.087-86.264,0.02-129.401l-0.003-1.757l1.343-1.148
				c5.826-4.968,21.354-8.493,30.918-10.07l-0.051-41.575c-9.411,0.84-17.969,2.61-27.398,4.656l-4.583,1.002l-0.2-23.251
				l-41.94-0.065l0.097,201.618C455.358,819.633,469.293,819.652,483.225,819.594L483.225,819.594z M618.082,807.451
				c20.486,20.553,66.737,15.611,93.489,15.229h0.194c17.239,0.634,35.206-6.168,46.955-18.956
				c13.726-14.939,16.406-40.005,10.173-58.735c-5.335-16.044-15.507-26.939-26.067-39.684
				c-9.487-10.431-25.609-25.834-17.593-41.303c4.545-8.765,14.758-8.895,23.192-6.698c5.154,1.338,10.58,3.96,15.32,7.182
				l0.007-46.716c-11.633-3.604-25.319-4.76-37.068-2.403c-18.942,3.805-37.325,20.327-42.492,38.929
				c-7.557,30.343,2.571,52.359,23.027,74.242l0.116,0.129c10.398,12.182,29.231,28.852,21.106,46.846
				c-4.876,10.813-15.151,12.783-25.688,14.933l-0.167,0.038l-0.167,0.02c-14.01,1.558-28.329,3.649-42.391,1.475l-0.154-0.026
				c-9.7-1.906-16.773-9.56-16.773-19.563V618.035h-38.119l-0.026,129.842c-0.007,10.475-16.579,33.165-26.319,36.866l-5.174,1.962
				v-168.67H535.39l-0.162,166.967c0.31,19.718,10.237,40.146,32.197,40.831c11.497,0.362,21.63-3.662,29.904-11.567
				c2.719-2.596,5.109-5.477,7.253-8.57c1.421-2.049,3.055-5.735,5.942-5.846l2.576-0.09l1.053,2.351
				C615,804.01,616.751,805.824,618.082,807.451L618.082,807.451z M972.081,782.631c-36.357,7.228-33.762,38.514-50.631,43.79
				C952.316,823.811,964.155,812.534,972.081,782.631L972.081,782.631z M913.22,826.899c-7.092-1.524-12.801-8.004-13.834-15.464
				l-0.031-0.257v-0.252c-0.156-53.712,0.412-107.448-0.149-161.153c-2.422-17.594-14.242-35.108-33.683-34.825
				c-11.361,0.892-19.24,8.52-25.655,17.36l-6.91,9.534l0.072-115.521c-13.759,8.841-27.645,17.271-41.86,25.396l0.014,267.909
				l40.335-0.063l0.147-132.367l0.259-0.658c5.128-13.325,13.002-25.396,25.512-32.798l5.788-3.43l-0.026,6.725
				c-0.246,54.589-0.252,109.236,0.084,163.825c15.203,4.387,34.342,6.589,49.842,6.047
				C913.157,826.906,913.189,826.899,913.22,826.899L913.22,826.899z M624.843,548.81l-4.916,2.319l-0.154-2.692l-10.017-0.75
				l9.7-4.729l-0.129-2.233l4.03,0.322c26.791-13.577,55.72-50.624,64.788-78.862c4.495-16.34,4.295-34.398-3.062-49.899
				c-5.575-11.732-15.488-21.902-28.625-24.415c-21.979-4.214-46.387,13.566-57.174,31.535l-4.502,7.504l-2.435-8.406
				c-7.298-25.244-29.174-33.33-53.311-28.857c-27.418,7.63-41.064,35.067-36.356,62.178c5.529,31.855,39.521,70.802,66.371,87.523
				l8.202,5.108l-9.481,1.873c-31.648,6.252-63.981-6.834-89.199-25.318c-31.157-18.633-64.578-39.159-100.408-46.98
				c-38.158-8.332-75.732-5.032-109.983,14.713c-4.644,2.674-9.139,5.611-13.457,8.784c-23.625,17.373-41.426,41.361-53.013,68.179
				c-12.553,29.038-17.713,61.021-16.186,92.561c2.816,58.09,34.936,109.901,84.436,140.014
				c43.884,26.692,97.137,32.849,145.991,17.141l0.017-50.081c-38.582,16.89-87.148,14.591-122.643-8.397
				c-35.071-22.709-57.841-59.091-60.267-101.118c-2.774-48.059,16.375-99.762,58.19-126.611
				c33.053-19.789,68.94-23.807,104.554-8.99c14.749,6.143,27.382,13.589,40.961,21.806c9.966,6.032,19.725,11.599,30.453,16.218
				c14.678,6.323,30.104,10.631,45.726,13.904c29.128,6.098,57.973,2.532,85.733-7.634l1.111-0.406l1.142,0.29
				c25.669,6.511,51.878,8.448,78.248,6.032c49.682-4.56,100.545-25.551,140.163-55.842c42.188-32.256,67.402-98.748,67.48-150.829
				l0.277-195.377l-42.362-0.178l0.206,122.736c0.026,16.996-6.865,23.016-17.793,33.918l-6.497,6.48l-0.228-163.245l-41.729,0.465
				l0.097,162.374c0.007,21.088,13.751,38.617,35.368,40.207c9.617,0.704,17.49-5.506,23.91-11.924l6.529-6.522l-0.013,9.232
				c-0.058,26.552-2.079,59.895-13.744,84.135c-13.485,28.025-42.052,49.732-67.701,66.125
				C723.45,536.268,671.676,552.04,624.843,548.81L624.843,548.81z M596.638,436.783c12.007-13.625,30.117-24.457,48.622-21.327
				c7.614,1.285,14.57,5.893,18.813,12.333c6.4,9.711,5.941,21.757,2.939,32.555c-9.011,32.43-44.662,60.385-71.409,77.978
				l-1.808,1.189l-1.944-0.943c-32.101-15.502-57.335-47.383-64.911-82.195l-0.038-0.193c-1.893-11.613,0.49-25.403,8.952-34.08
				c9.753-9.995,24.439-8.891,36.44-4.153l0.174,0.071l0.167,0.083C582.694,423.271,590.424,427.934,596.638,436.783
				L596.638,436.783z M251.023,29.819c-49.642-14.709-100.008-10.74-144.605,16.519c-52.793,32.275-85.792,89.464-85,151.626
				c0.545,42.638,14.119,80.892,42.079,113.112c28.244,32.549,66.555,54.926,109.615,60.203
				c27.266,3.346,70.902,0.701,94.169-15.841l-15.036-39.953c-19.422,7.889-39.851,12.155-60.942,10.989
				C123.73,322.74,70.368,271.632,67.138,203.299c-2.867-60.667,37.238-115.267,95.642-131c28.515-7.683,61.212-4.511,88.375,7.373
				L251.023,29.819L251.023,29.819z M292.058,207.313l40.181,11.138c2.012-7.143,7.882-12.752,15.779-13.066
				c9.755-0.388,17.723,7.114,18.274,16.806l0.01,0.116l-0.08,29.235l-5.93-4.004c-8.086-5.457-13.35-7.069-23.074-6.975
				c-15.621,0.151-31.405,7.415-42.628,18.11c-14.264,13.599-22.325,32.465-20.803,52.248c2.561,33.373,28.641,59.689,62.065,62.191
				c16.402,1.231,32.313-3.691,45.699-13.13l2.164-1.528l2.189,1.496c3.995,2.735,8.019,4.692,12.753,5.726l0.184,0.042
				c8.881,2.399,16.893,3.423,26.064,3.885c18.879,0.953,38.117,0.378,57.076,0.31l-0.146-127.021
				c-0.017-14.855,14.09-31.222,25.684-39.36l5.561-3.908l0.44,6.785c0.36,5.694-0.239,11.4,0.154,17.074l0.006,0.136
				l-0.116,151.371l38.295-10.111l-0.058-158.896c-0.008-16.493-6.163-40.917-26.237-42.299
				c-13.834-0.193-25.008,6.649-33.075,17.671l-6.833,9.333l-0.12-22.564c-13.993-0.126-27.993-0.003-41.985-0.006l-0.081,164.004
				l-2.057,1.065c-13.651,7.076-27.621,5.7-33.405-10.689l-0.22-0.617l0.174-99.529c0.048-29.84-22.186-55.113-51.851-58.617
				C326.455,160.232,299.909,179.085,292.058,207.313L292.058,207.313z M362.714,322.366c-9.866,14.445-32.178,15.346-43.174,1.809
				c-7.563-8.888-8.7-20.759-3.168-30.983c6.284-11.609,20.581-16.832,32.833-12.478
				C366.479,286.207,373.807,307.714,362.714,322.366L362.714,322.366z M769.288,372.738l-5.038-41.511
				c-6.311-0.6-13.312-2.783-14.862-9.572l-0.097-0.419l0.259-269.986l-41.957,32.819c0.136,25.642,0.078,51.28,0.026,76.917
				l-0.013,4.99l-4.806-1.318c-22.696-6.209-52.736-2.628-73.12,9.165c-35.91,20.765-56.72,54.115-56.855,95.78
				c-0.116,36.809,16.398,67.83,47.601,87.226c28.083,17.461,74.088,24.407,101.971,3.255l2.365-1.792l2.317,1.847
				C737.207,368.204,755.485,372.605,769.288,372.738L769.288,372.738z M705.85,326.871c-43.177,23.097-93.491-13.954-91.295-61.138
				c0.555-11.936,4.56-23.419,11.315-33.256c17.923-26.117,50.288-35.618,79.61-23.743l2.383,0.966v116.093L705.85,326.871
				L705.85,326.871z"/>
		</defs>
		<clipPath id="SVGID_4_">
			<use xlink:href="#SVGID_3_"  overflow="visible"/>
		</clipPath>
		<polygon clip-path="url(#SVGID_4_)" fill-rule="evenodd" clip-rule="evenodd" fill="#F3DD57" points="972.074,15.1 
			972.074,16.239 20.623,16.249 20.623,15.112 972.074,15.1 		"/>
		<polygon clip-path="url(#SVGID_4_)" fill-rule="evenodd" clip-rule="evenodd" fill="#F3DD57" points="972.074,12.927 
			972.074,22.863 20.623,22.873 20.623,12.939 972.074,12.927 		"/>
		<polygon clip-path="url(#SVGID_4_)" fill-rule="evenodd" clip-rule="evenodd" fill="#F3DD57" points="972.074,19.55 
			972.074,29.484 20.623,29.496 20.623,19.56 972.074,19.55 		"/>
		<polygon clip-path="url(#SVGID_4_)" fill-rule="evenodd" clip-rule="evenodd" fill="#F3DD57" points="972.074,26.173 
			972.074,36.107 20.623,36.116 20.623,26.186 972.074,26.173 		"/>
		<polygon clip-path="url(#SVGID_4_)" fill-rule="evenodd" clip-rule="evenodd" fill="#F3DD56" points="972.074,32.794 
			972.074,42.73 20.623,42.74 20.623,32.806 972.074,32.794 		"/>
		<polygon clip-path="url(#SVGID_4_)" fill-rule="evenodd" clip-rule="evenodd" fill="#F3DD56" points="972.074,39.42 
			972.074,49.351 20.623,49.363 20.623,39.427 972.074,39.42 		"/>
		<polygon clip-path="url(#SVGID_4_)" fill-rule="evenodd" clip-rule="evenodd" fill="#F2DC56" points="972.074,46.04 
			972.074,55.974 20.626,55.984 20.623,46.05 972.074,46.04 		"/>
		<polygon clip-path="url(#SVGID_4_)" fill-rule="evenodd" clip-rule="evenodd" fill="#F2DC55" points="972.074,52.664 
			972.074,62.597 20.626,62.607 20.626,52.673 972.074,52.664 		"/>
		<polygon clip-path="url(#SVGID_4_)" fill-rule="evenodd" clip-rule="evenodd" fill="#F2DC55" points="972.074,59.284 
			972.074,69.221 20.626,69.23 20.626,59.297 972.074,59.284 		"/>
		<polygon clip-path="url(#SVGID_4_)" fill-rule="evenodd" clip-rule="evenodd" fill="#F2DC55" points="972.074,65.908 
			972.074,75.841 20.626,75.854 20.626,65.918 972.074,65.908 		"/>
		<polygon clip-path="url(#SVGID_4_)" fill-rule="evenodd" clip-rule="evenodd" fill="#F2DC55" points="972.074,72.531 
			972.074,82.464 20.626,82.474 20.626,72.541 972.074,72.531 		"/>
		<polygon clip-path="url(#SVGID_4_)" fill-rule="evenodd" clip-rule="evenodd" fill="#F2DC54" points="972.074,79.151 
			972.074,89.088 20.626,89.098 20.626,79.164 972.074,79.151 		"/>
		<polygon clip-path="url(#SVGID_4_)" fill-rule="evenodd" clip-rule="evenodd" fill="#F2DC54" points="972.074,85.774 
			972.074,95.708 20.626,95.721 20.626,85.784 972.074,85.774 		"/>
		<polygon clip-path="url(#SVGID_4_)" fill-rule="evenodd" clip-rule="evenodd" fill="#F2DC54" points="972.074,92.398 
			972.074,102.332 20.626,102.341 20.626,92.408 972.074,92.398 		"/>
		<polygon clip-path="url(#SVGID_4_)" fill-rule="evenodd" clip-rule="evenodd" fill="#F3DB53" points="972.074,99.021 
			972.074,108.956 20.626,108.965 20.626,99.031 972.074,99.021 		"/>
		<polygon clip-path="url(#SVGID_4_)" fill-rule="evenodd" clip-rule="evenodd" fill="#F3DB53" points="972.074,105.642 
			972.074,115.579 20.626,115.588 20.626,105.655 972.074,105.642 		"/>
		<polygon clip-path="url(#SVGID_4_)" fill-rule="evenodd" clip-rule="evenodd" fill="#F3DB53" points="972.074,112.266 
			972.074,122.199 20.626,122.209 20.626,112.275 972.074,112.266 		"/>
		<polygon clip-path="url(#SVGID_4_)" fill-rule="evenodd" clip-rule="evenodd" fill="#F3DB53" points="972.074,118.889 
			972.074,128.823 20.626,128.833 20.626,118.898 972.074,118.889 		"/>
		<polygon clip-path="url(#SVGID_4_)" fill-rule="evenodd" clip-rule="evenodd" fill="#F2D952" points="972.074,125.509 
			972.074,135.442 20.626,135.452 20.626,125.521 972.074,125.509 		"/>
		<polygon clip-path="url(#SVGID_4_)" fill-rule="evenodd" clip-rule="evenodd" fill="#F2D952" points="972.074,132.132 
			972.074,142.066 20.626,142.076 20.626,132.142 972.074,132.132 		"/>
		<polygon clip-path="url(#SVGID_4_)" fill-rule="evenodd" clip-rule="evenodd" fill="#F2D952" points="972.074,138.756 
			972.074,148.689 20.626,148.699 20.626,138.766 972.074,138.756 		"/>
		<polygon clip-path="url(#SVGID_4_)" fill-rule="evenodd" clip-rule="evenodd" fill="#F1D951" points="972.074,145.376 
			972.074,155.31 20.626,155.323 20.626,145.39 972.074,145.376 		"/>
		<polygon clip-path="url(#SVGID_4_)" fill-rule="evenodd" clip-rule="evenodd" fill="#F2D951" points="972.074,152 
			972.074,161.937 20.626,161.943 20.626,152.013 972.074,152 		"/>
		<polygon clip-path="url(#SVGID_4_)" fill-rule="evenodd" clip-rule="evenodd" fill="#F2D951" points="972.074,158.624 
			972.074,168.557 20.626,168.566 20.626,158.633 972.074,158.624 		"/>
		<polygon clip-path="url(#SVGID_4_)" fill-rule="evenodd" clip-rule="evenodd" fill="#F2D951" points="972.074,165.247 
			972.074,175.177 20.626,175.19 20.626,165.256 972.074,165.247 		"/>
		<polygon clip-path="url(#SVGID_4_)" fill-rule="evenodd" clip-rule="evenodd" fill="#F2D950" points="972.074,171.867 
			972.074,181.801 20.626,181.811 20.626,171.88 972.074,171.867 		"/>
		<polygon clip-path="url(#SVGID_4_)" fill-rule="evenodd" clip-rule="evenodd" fill="#F2D950" points="972.074,178.49 
			972.074,188.424 20.626,188.434 20.626,178.5 972.074,178.49 		"/>
		<polygon clip-path="url(#SVGID_4_)" fill-rule="evenodd" clip-rule="evenodd" fill="#F2D950" points="972.074,185.114 
			972.074,195.047 20.626,195.057 20.626,185.124 972.074,185.114 		"/>
		<polygon clip-path="url(#SVGID_4_)" fill-rule="evenodd" clip-rule="evenodd" fill="#F1D84F" points="972.074,191.734 
			972.074,201.667 20.626,201.681 20.626,191.748 972.074,191.734 		"/>
		<polygon clip-path="url(#SVGID_4_)" fill-rule="evenodd" clip-rule="evenodd" fill="#F1D84F" points="972.074,198.357 
			972.074,208.292 20.626,208.301 20.626,198.367 972.074,198.357 		"/>
		<polygon clip-path="url(#SVGID_4_)" fill-rule="evenodd" clip-rule="evenodd" fill="#F1D84F" points="972.074,204.981 
			972.074,214.915 20.626,214.924 20.626,204.991 972.074,204.981 		"/>
		<polygon clip-path="url(#SVGID_4_)" fill-rule="evenodd" clip-rule="evenodd" fill="#EFD54F" points="972.074,211.604 
			972.074,221.535 20.626,221.548 20.626,211.611 972.074,211.604 		"/>
		<polygon clip-path="url(#SVGID_4_)" fill-rule="evenodd" clip-rule="evenodd" fill="#EED44E" points="972.074,218.225 
			972.074,228.159 20.626,228.168 20.626,218.238 972.074,218.225 		"/>
		<polygon clip-path="url(#SVGID_4_)" fill-rule="evenodd" clip-rule="evenodd" fill="#EED34E" points="972.074,224.849 
			972.074,234.782 20.626,234.792 20.626,224.858 972.074,224.849 		"/>
		<polygon clip-path="url(#SVGID_4_)" fill-rule="evenodd" clip-rule="evenodd" fill="#EDD14F" points="972.074,231.472 
			972.074,241.405 20.626,241.415 20.626,231.481 972.074,231.472 		"/>
		<polygon clip-path="url(#SVGID_4_)" fill-rule="evenodd" clip-rule="evenodd" fill="#EACE4F" points="972.074,238.092 
			972.074,248.025 20.626,248.039 20.626,238.105 972.074,238.092 		"/>
		<polygon clip-path="url(#SVGID_4_)" fill-rule="evenodd" clip-rule="evenodd" fill="#EACD4E" points="972.074,244.716 
			972.074,254.649 20.626,254.659 20.626,244.726 972.074,244.716 		"/>
		<polygon clip-path="url(#SVGID_4_)" fill-rule="evenodd" clip-rule="evenodd" fill="#E8CB4E" points="972.074,251.339 
			972.074,261.273 20.626,261.283 20.626,251.349 972.074,251.339 		"/>
		<polygon clip-path="url(#SVGID_4_)" fill-rule="evenodd" clip-rule="evenodd" fill="#E6C74B" points="972.074,257.959 
			972.074,267.893 20.626,267.906 20.626,257.969 972.074,257.959 		"/>
		<polygon clip-path="url(#SVGID_4_)" fill-rule="evenodd" clip-rule="evenodd" fill="#E4C14A" points="972.074,264.583 
			972.074,274.517 20.626,274.526 20.626,264.592 972.074,264.583 		"/>
		<polygon clip-path="url(#SVGID_4_)" fill-rule="evenodd" clip-rule="evenodd" fill="#E2BC4A" points="972.074,271.203 
			972.074,281.14 20.626,281.149 20.626,271.216 972.074,271.203 		"/>
		<polygon clip-path="url(#SVGID_4_)" fill-rule="evenodd" clip-rule="evenodd" fill="#E0B749" points="972.074,277.827 
			972.074,287.763 20.626,287.773 20.626,277.839 972.074,277.827 		"/>
		<polygon clip-path="url(#SVGID_4_)" fill-rule="evenodd" clip-rule="evenodd" fill="#E0B347" points="972.074,284.45 
			972.074,294.383 20.626,294.396 20.626,284.459 972.074,284.45 		"/>
		<polygon clip-path="url(#SVGID_4_)" fill-rule="evenodd" clip-rule="evenodd" fill="#DDAC46" points="972.074,291.073 
			972.074,301.007 20.626,301.017 20.626,291.083 972.074,291.073 		"/>
		<polygon clip-path="url(#SVGID_4_)" fill-rule="evenodd" clip-rule="evenodd" fill="#DBA747" points="972.074,297.694 
			972.074,307.63 20.626,307.64 20.626,297.706 972.074,297.694 		"/>
		<polygon clip-path="url(#SVGID_4_)" fill-rule="evenodd" clip-rule="evenodd" fill="#D9A145" points="972.074,304.317 
			972.074,314.251 20.626,314.263 20.626,304.327 972.074,304.317 		"/>
		<polygon clip-path="url(#SVGID_4_)" fill-rule="evenodd" clip-rule="evenodd" fill="#D69B41" points="972.074,310.94 
			972.074,320.874 20.626,320.884 20.626,310.95 972.074,310.94 		"/>
		<polygon clip-path="url(#SVGID_4_)" fill-rule="evenodd" clip-rule="evenodd" fill="#D4963F" points="972.074,317.561 
			972.074,327.497 20.626,327.507 20.626,317.574 972.074,317.561 		"/>
		<polygon clip-path="url(#SVGID_4_)" fill-rule="evenodd" clip-rule="evenodd" fill="#D3913D" points="972.074,324.184 
			972.074,334.121 20.626,334.127 20.626,324.194 972.074,324.184 		"/>
		<polygon clip-path="url(#SVGID_4_)" fill-rule="evenodd" clip-rule="evenodd" fill="#D18C3C" points="972.074,330.807 
			972.074,340.741 20.626,340.754 20.626,330.817 972.074,330.807 		"/>
		<polygon clip-path="url(#SVGID_4_)" fill-rule="evenodd" clip-rule="evenodd" fill="#D0883B" points="972.074,337.431 
			972.074,347.361 20.626,347.374 20.626,337.441 972.074,337.431 		"/>
		<polygon clip-path="url(#SVGID_4_)" fill-rule="evenodd" clip-rule="evenodd" fill="#D08A3C" points="972.074,344.052 
			972.074,353.988 20.626,353.995 20.626,344.064 972.074,344.052 		"/>
		<polygon clip-path="url(#SVGID_4_)" fill-rule="evenodd" clip-rule="evenodd" fill="#D28E3D" points="972.074,350.675 
			972.081,360.608 20.626,360.621 20.626,350.685 972.074,350.675 		"/>
		<polygon clip-path="url(#SVGID_4_)" fill-rule="evenodd" clip-rule="evenodd" fill="#D4933F" points="972.074,357.298 
			972.081,367.232 20.626,367.241 20.626,357.308 972.074,357.298 		"/>
		<polygon clip-path="url(#SVGID_4_)" fill-rule="evenodd" clip-rule="evenodd" fill="#D59740" points="972.081,363.918 
			972.081,373.855 20.626,373.865 20.626,363.931 972.081,363.918 		"/>
		<polygon clip-path="url(#SVGID_4_)" fill-rule="evenodd" clip-rule="evenodd" fill="#D89C43" points="972.081,370.542 
			972.081,380.475 20.626,380.485 20.626,370.552 972.081,370.542 		"/>
		<polygon clip-path="url(#SVGID_4_)" fill-rule="evenodd" clip-rule="evenodd" fill="#DAA144" points="972.081,377.166 
			972.081,387.099 20.626,387.109 20.626,377.175 972.081,377.166 		"/>
		<polygon clip-path="url(#SVGID_4_)" fill-rule="evenodd" clip-rule="evenodd" fill="#DDA644" points="972.081,383.789 
			972.081,393.719 20.628,393.732 20.626,383.799 972.081,383.789 		"/>
		<polygon clip-path="url(#SVGID_4_)" fill-rule="evenodd" clip-rule="evenodd" fill="#DFAA44" points="972.081,390.409 
			972.081,400.343 20.628,400.352 20.628,390.422 972.081,390.409 		"/>
		<polygon clip-path="url(#SVGID_4_)" fill-rule="evenodd" clip-rule="evenodd" fill="#DFAE45" points="972.081,397.032 
			972.081,406.966 20.628,406.976 20.628,397.042 972.081,397.032 		"/>
		<polygon clip-path="url(#SVGID_4_)" fill-rule="evenodd" clip-rule="evenodd" fill="#E2B147" points="972.081,403.656 
			972.081,413.589 20.628,413.599 20.628,403.666 972.081,403.656 		"/>
		<polygon clip-path="url(#SVGID_4_)" fill-rule="evenodd" clip-rule="evenodd" fill="#E4B447" points="972.081,410.276 
			972.081,420.21 20.628,420.223 20.628,410.289 972.081,410.276 		"/>
		<polygon clip-path="url(#SVGID_4_)" fill-rule="evenodd" clip-rule="evenodd" fill="#E8B948" points="972.081,416.899 
			972.081,426.833 20.628,426.843 20.628,416.909 972.081,416.899 		"/>
		<polygon clip-path="url(#SVGID_4_)" fill-rule="evenodd" clip-rule="evenodd" fill="#EABC47" points="972.081,423.523 
			972.081,433.457 20.628,433.47 20.628,423.533 972.081,423.523 		"/>
		<polygon clip-path="url(#SVGID_4_)" fill-rule="evenodd" clip-rule="evenodd" fill="#EDC048" points="972.081,430.146 
			972.081,440.076 20.628,440.09 20.628,430.156 972.081,430.146 		"/>
		<polygon clip-path="url(#SVGID_4_)" fill-rule="evenodd" clip-rule="evenodd" fill="#EDC149" points="972.081,436.764 
			972.081,446.697 20.628,446.711 20.628,436.776 972.081,436.764 		"/>
		<polygon clip-path="url(#SVGID_4_)" fill-rule="evenodd" clip-rule="evenodd" fill="#EDC149" points="972.081,443.39 
			972.081,453.324 20.628,453.337 20.628,443.404 972.081,443.39 		"/>
		<polygon clip-path="url(#SVGID_4_)" fill-rule="evenodd" clip-rule="evenodd" fill="#EDC34A" points="972.081,450.018 
			972.081,459.95 20.628,459.957 20.628,450.022 972.081,450.018 		"/>
		<polygon clip-path="url(#SVGID_4_)" fill-rule="evenodd" clip-rule="evenodd" fill="#EDC54A" points="972.081,456.631 
			972.081,466.564 20.628,466.577 20.628,456.644 972.081,456.631 		"/>
		<polygon clip-path="url(#SVGID_4_)" fill-rule="evenodd" clip-rule="evenodd" fill="#EEC64C" points="972.081,463.258 
			972.081,473.19 20.628,473.204 20.628,463.271 972.081,463.258 		"/>
		<polygon clip-path="url(#SVGID_4_)" fill-rule="evenodd" clip-rule="evenodd" fill="#EEC84C" points="972.081,469.877 
			972.081,479.818 20.628,479.825 20.628,469.891 972.081,469.877 		"/>
		<polygon clip-path="url(#SVGID_4_)" fill-rule="evenodd" clip-rule="evenodd" fill="#EFC94E" points="972.081,476.504 
			972.081,486.432 20.628,486.445 20.628,476.512 972.081,476.504 		"/>
		<polygon clip-path="url(#SVGID_4_)" fill-rule="evenodd" clip-rule="evenodd" fill="#EFCB4F" points="972.081,483.125 
			972.081,493.059 20.628,493.071 20.628,483.137 972.081,483.125 		"/>
		<polygon clip-path="url(#SVGID_4_)" fill-rule="evenodd" clip-rule="evenodd" fill="#EECC4F" points="972.081,489.745 
			972.081,499.685 20.628,499.691 20.628,489.758 972.081,489.745 		"/>
		<polygon clip-path="url(#SVGID_4_)" fill-rule="evenodd" clip-rule="evenodd" fill="#F0CE51" points="972.081,496.372 
			972.081,506.299 20.628,506.312 20.628,496.378 972.081,496.372 		"/>
		<polygon clip-path="url(#SVGID_4_)" fill-rule="evenodd" clip-rule="evenodd" fill="#F0D051" points="972.081,502.991 
			972.081,512.925 20.628,512.938 20.628,503.005 972.081,502.991 		"/>
		<polygon clip-path="url(#SVGID_4_)" fill-rule="evenodd" clip-rule="evenodd" fill="#F0D152" points="972.081,509.618 
			972.081,519.553 20.628,519.558 20.628,509.625 972.081,509.618 		"/>
		<polygon clip-path="url(#SVGID_4_)" fill-rule="evenodd" clip-rule="evenodd" fill="#F1D351" points="972.081,516.232 
			972.081,526.173 20.628,526.179 20.628,516.246 972.081,516.232 		"/>
		<polygon clip-path="url(#SVGID_4_)" fill-rule="evenodd" clip-rule="evenodd" fill="#F1D454" points="972.081,522.859 
			972.081,532.792 20.628,532.806 20.628,522.872 972.081,522.859 		"/>
		<polygon clip-path="url(#SVGID_4_)" fill-rule="evenodd" clip-rule="evenodd" fill="#F2D654" points="972.081,529.485 
			972.081,539.419 20.628,539.426 20.628,529.492 972.081,529.485 		"/>
		<polygon clip-path="url(#SVGID_4_)" fill-rule="evenodd" clip-rule="evenodd" fill="#F2D654" points="972.081,536.1 
			972.081,546.039 20.628,546.047 20.628,536.112 972.081,536.1 		"/>
		<polygon clip-path="url(#SVGID_4_)" fill-rule="evenodd" clip-rule="evenodd" fill="#F1D756" points="972.081,542.726 
			972.081,552.66 20.628,552.672 20.628,542.739 972.081,542.726 		"/>
		<polygon clip-path="url(#SVGID_4_)" fill-rule="evenodd" clip-rule="evenodd" fill="#F1D856" points="972.081,549.354 
			972.081,559.287 20.628,559.293 20.628,549.36 972.081,549.354 		"/>
		<polygon clip-path="url(#SVGID_4_)" fill-rule="evenodd" clip-rule="evenodd" fill="#F1DA57" points="972.081,555.974 
			972.081,565.906 20.628,565.913 20.628,555.979 972.081,555.974 		"/>
		<polygon clip-path="url(#SVGID_4_)" fill-rule="evenodd" clip-rule="evenodd" fill="#F1DA57" points="972.081,562.594 
			972.081,572.526 20.628,572.54 20.628,562.606 972.081,562.594 		"/>
		<polygon clip-path="url(#SVGID_4_)" fill-rule="evenodd" clip-rule="evenodd" fill="#F1DA56" points="972.081,569.22 
			972.081,579.153 20.628,579.16 20.628,569.227 972.081,569.22 		"/>
		<polygon clip-path="url(#SVGID_4_)" fill-rule="evenodd" clip-rule="evenodd" fill="#F1DA56" points="972.081,575.84 
			972.081,585.774 20.628,585.779 20.628,575.847 972.081,575.84 		"/>
		<polygon clip-path="url(#SVGID_4_)" fill-rule="evenodd" clip-rule="evenodd" fill="#F2DA54" points="972.081,582.46 
			972.081,592.395 20.628,592.407 20.628,582.473 972.081,582.46 		"/>
		<polygon clip-path="url(#SVGID_4_)" fill-rule="evenodd" clip-rule="evenodd" fill="#F1D854" points="972.081,589.088 
			972.081,599.021 20.628,599.027 20.628,589.093 972.081,589.088 		"/>
		<polygon clip-path="url(#SVGID_4_)" fill-rule="evenodd" clip-rule="evenodd" fill="#F1D853" points="972.081,595.708 
			972.081,605.641 20.628,605.647 20.628,595.714 972.081,595.708 		"/>
		<polygon clip-path="url(#SVGID_4_)" fill-rule="evenodd" clip-rule="evenodd" fill="#F0D753" points="972.081,602.328 
			972.081,612.261 20.628,612.274 20.628,602.341 972.081,602.328 		"/>
		<polygon clip-path="url(#SVGID_4_)" fill-rule="evenodd" clip-rule="evenodd" fill="#F1D852" points="972.081,608.954 
			972.081,618.889 20.628,618.894 20.628,608.967 972.081,608.954 		"/>
		<polygon clip-path="url(#SVGID_4_)" fill-rule="evenodd" clip-rule="evenodd" fill="#F1D852" points="972.081,615.574 
			972.081,625.509 20.628,625.514 20.628,615.582 972.081,615.574 		"/>
		<polygon clip-path="url(#SVGID_4_)" fill-rule="evenodd" clip-rule="evenodd" fill="#F0D651" points="972.081,622.195 
			972.081,632.129 20.628,632.142 20.628,622.207 972.081,622.195 		"/>
		<polygon clip-path="url(#SVGID_4_)" fill-rule="evenodd" clip-rule="evenodd" fill="#F0D651" points="972.081,628.821 
			972.081,638.755 20.628,638.768 20.628,628.835 972.081,628.821 		"/>
		<polygon clip-path="url(#SVGID_4_)" fill-rule="evenodd" clip-rule="evenodd" fill="#F0D650" points="972.081,635.441 
			972.081,645.375 20.628,645.382 20.628,635.448 972.081,635.441 		"/>
		<polygon clip-path="url(#SVGID_4_)" fill-rule="evenodd" clip-rule="evenodd" fill="#F0D650" points="972.081,642.062 
			972.081,651.996 20.628,652.008 20.628,642.075 972.081,642.062 		"/>
		<polygon clip-path="url(#SVGID_4_)" fill-rule="evenodd" clip-rule="evenodd" fill="#F0D64F" points="972.081,648.688 
			972.081,658.623 20.628,658.636 20.628,648.701 972.081,648.688 		"/>
		<polygon clip-path="url(#SVGID_4_)" fill-rule="evenodd" clip-rule="evenodd" fill="#EFD54F" points="972.081,655.31 
			972.081,665.243 20.628,665.249 20.628,655.321 972.081,655.31 		"/>
		<polygon clip-path="url(#SVGID_4_)" fill-rule="evenodd" clip-rule="evenodd" fill="#EFD54E" points="972.081,661.93 
			972.081,671.862 20.628,671.876 20.628,661.942 972.081,661.93 		"/>
		<polygon clip-path="url(#SVGID_4_)" fill-rule="evenodd" clip-rule="evenodd" fill="#EFD54E" points="972.081,668.556 
			972.081,678.489 20.628,678.502 20.628,668.563 972.081,668.556 		"/>
		<polygon clip-path="url(#SVGID_4_)" fill-rule="evenodd" clip-rule="evenodd" fill="#EFD54E" points="972.081,675.176 
			972.081,685.109 20.628,685.117 20.628,675.189 972.081,675.176 		"/>
		<polygon clip-path="url(#SVGID_4_)" fill-rule="evenodd" clip-rule="evenodd" fill="#EFD44D" points="972.081,681.796 
			972.081,691.73 20.628,691.742 20.628,681.809 972.081,681.796 		"/>
		<polygon clip-path="url(#SVGID_4_)" fill-rule="evenodd" clip-rule="evenodd" fill="#EFD24B" points="972.081,688.424 
			972.081,698.356 20.628,698.37 20.628,688.436 972.081,688.424 		"/>
		<polygon clip-path="url(#SVGID_4_)" fill-rule="evenodd" clip-rule="evenodd" fill="#EECF4C" points="972.081,695.044 
			972.081,704.977 20.628,704.99 20.628,695.057 972.081,695.044 		"/>
		<polygon clip-path="url(#SVGID_4_)" fill-rule="evenodd" clip-rule="evenodd" fill="#EAC94B" points="972.081,701.663 
			972.081,711.604 20.628,711.609 20.628,701.677 972.081,701.663 		"/>
		<polygon clip-path="url(#SVGID_4_)" fill-rule="evenodd" clip-rule="evenodd" fill="#E9C64A" points="972.081,708.29 
			972.081,718.224 20.628,718.236 20.628,708.304 972.081,708.29 		"/>
		<polygon clip-path="url(#SVGID_4_)" fill-rule="evenodd" clip-rule="evenodd" fill="#E7C349" points="972.081,714.91 
			972.081,724.845 20.628,724.856 20.628,714.923 972.081,714.91 		"/>
		<polygon clip-path="url(#SVGID_4_)" fill-rule="evenodd" clip-rule="evenodd" fill="#E6BF47" points="972.081,721.531 
			972.081,731.471 20.632,731.478 20.628,721.543 972.081,721.531 		"/>
		<polygon clip-path="url(#SVGID_4_)" fill-rule="evenodd" clip-rule="evenodd" fill="#E5BC48" points="972.081,728.158 
			972.081,738.091 20.632,738.104 20.628,728.164 972.081,728.158 		"/>
		<polygon clip-path="url(#SVGID_4_)" fill-rule="evenodd" clip-rule="evenodd" fill="#E4B847" points="972.081,734.777 
			972.081,744.711 20.632,744.724 20.632,734.791 972.081,734.777 		"/>
		<polygon clip-path="url(#SVGID_4_)" fill-rule="evenodd" clip-rule="evenodd" fill="#E1B447" points="972.081,741.398 
			972.081,751.338 20.632,751.345 20.632,741.411 972.081,741.398 		"/>
		<polygon clip-path="url(#SVGID_4_)" fill-rule="evenodd" clip-rule="evenodd" fill="#E1B145" points="972.081,748.024 
			972.081,757.959 20.632,757.971 20.632,748.031 972.081,748.024 		"/>
		<polygon clip-path="url(#SVGID_4_)" fill-rule="evenodd" clip-rule="evenodd" fill="#DFAE44" points="972.081,754.645 
			972.081,764.577 20.632,764.592 20.632,754.657 972.081,754.645 		"/>
		<polygon clip-path="url(#SVGID_4_)" fill-rule="evenodd" clip-rule="evenodd" fill="#DFAC43" points="972.081,761.272 
			972.081,771.199 20.632,771.212 20.632,761.277 972.081,761.272 		"/>
		<polygon clip-path="url(#SVGID_4_)" fill-rule="evenodd" clip-rule="evenodd" fill="#DDA844" points="972.081,767.892 
			972.081,777.825 20.632,777.838 20.632,767.905 972.081,767.892 		"/>
		<polygon clip-path="url(#SVGID_4_)" fill-rule="evenodd" clip-rule="evenodd" fill="#DCA544" points="972.081,774.512 
			972.081,784.445 20.632,784.458 20.632,774.524 972.081,774.512 		"/>
		<polygon clip-path="url(#SVGID_4_)" fill-rule="evenodd" clip-rule="evenodd" fill="#D9A044" points="972.081,781.139 
			972.081,791.073 20.632,791.078 20.632,781.146 972.081,781.139 		"/>
		<polygon clip-path="url(#SVGID_4_)" fill-rule="evenodd" clip-rule="evenodd" fill="#D99E42" points="972.081,787.759 
			972.081,797.691 20.632,797.706 20.632,787.771 972.081,787.759 		"/>
		<polygon clip-path="url(#SVGID_4_)" fill-rule="evenodd" clip-rule="evenodd" fill="#D69A42" points="972.081,794.38 
			972.081,804.313 20.632,804.326 20.632,794.392 972.081,794.38 		"/>
		<polygon clip-path="url(#SVGID_4_)" fill-rule="evenodd" clip-rule="evenodd" fill="#D4963F" points="972.081,801.006 
			972.081,810.939 20.632,810.946 20.632,801.013 972.081,801.006 		"/>
		<polygon clip-path="url(#SVGID_4_)" fill-rule="evenodd" clip-rule="evenodd" fill="#D4933E" points="972.081,807.626 
			972.081,817.56 20.632,817.572 20.632,807.639 972.081,807.626 		"/>
		<polygon clip-path="url(#SVGID_4_)" fill-rule="evenodd" clip-rule="evenodd" fill="#D3903D" points="972.081,814.246 
			972.081,824.18 20.632,824.192 20.632,814.26 972.081,814.246 		"/>
		<polygon clip-path="url(#SVGID_4_)" fill-rule="evenodd" clip-rule="evenodd" fill="#D18D3C" points="972.081,820.873 
			972.081,830.806 20.632,830.813 20.632,820.879 972.081,820.873 		"/>
		<polygon clip-path="url(#SVGID_4_)" fill-rule="evenodd" clip-rule="evenodd" fill="#D0893C" points="972.081,827.492 
			972.081,831.123 20.632,831.135 20.632,827.506 972.081,827.492 		"/>
	</g>
</g>
</svg>
